<svg width="1080" height="1080" viewBox="0 0 1080 1080" fill="none" xmlns="http://www.w3.org/2000/svg">
<path d="M714.698 830.225C605.348 919.788 575.073 856.133 455.267 773.559C405.146 739.014 292.128 727.263 208.274 679.359C34.1976 579.914 99.5796 395.602 254.677 268.57C409.774 141.538 638.484 164.29 765.515 319.387C892.546 474.484 869.795 703.194 714.698 830.225ZM1041.3 1031H57.5476C52.2136 1031 47.8506 1026.64 47.8506 1021.3V994.197C47.8506 988.863 52.2146 984.499 57.5476 984.499H1041.3C1046.64 984.499 1051 988.863 1051 994.197V1021.3C1051 1026.64 1046.64 1031 1041.3 1031Z" fill="#FDF0F3"/>
<path d="M896.19 909.349C902.723 892.739 909.311 874.28 903.19 857.514C901.703 853.441 899.463 849.129 900.805 845.006C902.618 839.439 909.943 837.451 912.422 832.146C915.148 826.314 910.876 819.44 911.985 813.099C913.113 806.652 919.421 802.473 925.539 800.147C931.657 797.821 938.383 796.417 943.315 792.115C952.801 783.839 951.66 769.023 949.572 756.608C947.484 744.193 945.924 729.542 954.998 720.816C938.305 724.007 921.206 727.351 906.689 736.189C892.172 745.027 880.554 760.667 881.408 777.641C881.836 786.156 885.206 795.236 881.308 802.819C877.099 811.006 865.771 814.188 862.913 822.939C859.629 832.995 869.432 842.101 873.303 851.946C876.938 861.193 875.217 871.564 876.032 881.466C876.847 891.368 882.041 902.569 891.865 904.049L896.19 909.349Z" fill="#1AD8AA"/>
<path d="M889.426 887.515C889.265 839.205 898.578 738.101 954.395 721.225" stroke="white" stroke-width="0.75" stroke-miterlimit="10" stroke-linecap="round"/>
<path d="M857.278 905.301C847.343 886.752 837.089 866.045 841.948 845.572C843.128 840.598 845.158 835.241 843.019 830.599C840.13 824.33 831.279 823.01 827.647 817.141C823.653 810.687 827.708 802.052 825.537 794.779C823.33 787.385 815.368 783.361 807.885 781.479C800.402 779.597 792.333 778.879 785.966 774.52C773.72 766.136 773.017 748.631 773.753 733.807C774.49 718.984 774.299 701.614 762.474 692.645C782.459 694.084 802.94 695.646 821.153 703.997C839.366 712.348 855.123 729.061 856.459 749.053C857.129 759.082 854.433 770.177 860.042 778.519C866.097 787.526 879.798 789.692 884.349 799.545C889.578 810.867 879.353 822.878 876.176 834.938C873.192 846.265 876.635 858.171 877.043 869.878C877.451 881.584 872.912 895.414 861.612 898.499L857.278 905.301Z" fill="#2A94F4"/>
<path d="M862.194 878.802C855.734 822.215 830.915 705.116 763.237 693.039" stroke="white" stroke-width="0.75" stroke-miterlimit="10" stroke-linecap="round"/>
<path d="M920.03 1014.11H832.783C826.722 1014.11 821.762 1009.15 821.762 1003.09L814.415 877.273C814.415 871.212 819.374 866.252 825.436 866.252H927.377C933.438 866.252 938.398 871.211 938.398 877.273L931.051 1003.09C931.05 1009.15 926.091 1014.11 920.03 1014.11Z" fill="#CCE9FF"/>
<path d="M151.557 942.705C147.104 931.384 142.614 918.802 146.786 907.374C147.799 904.598 149.327 901.659 148.411 898.849C147.175 895.054 142.182 893.699 140.493 890.084C138.635 886.109 141.547 881.424 140.791 877.101C140.022 872.707 135.723 869.859 131.553 868.273C127.383 866.687 122.798 865.731 119.437 862.798C112.971 857.157 113.749 847.058 115.172 838.597C116.595 830.135 117.658 820.149 111.474 814.201C122.852 816.376 134.507 818.655 144.401 824.68C154.295 830.704 162.215 841.364 161.632 852.934C161.34 858.738 159.043 864.927 161.7 870.095C164.569 875.675 172.29 877.844 174.238 883.809C176.476 890.663 169.794 896.87 167.156 903.58C164.678 909.882 165.852 916.952 165.296 923.701C164.74 930.45 161.201 938.085 154.504 939.093L151.557 942.705Z" fill="#1A87D8"/>
<path d="M156.168 927.823C156.278 894.895 149.93 825.982 111.885 814.48" stroke="white" stroke-width="0.75" stroke-miterlimit="10" stroke-linecap="round"/>
<path d="M178.08 939.947C184.852 927.304 191.841 913.19 188.529 899.235C187.724 895.845 186.341 892.193 187.799 889.029C189.768 884.756 195.801 883.857 198.277 879.856C200.999 875.457 198.235 869.571 199.715 864.614C201.22 859.574 206.646 856.832 211.747 855.549C216.848 854.266 222.347 853.777 226.687 850.806C235.034 845.091 235.513 833.16 235.011 823.056C234.509 812.952 234.639 801.113 242.699 795C229.078 795.981 215.117 797.045 202.703 802.738C190.289 808.43 179.549 819.822 178.639 833.448C178.182 840.284 180.02 847.846 176.197 853.532C172.07 859.671 162.731 861.148 159.629 867.863C156.065 875.58 163.034 883.767 165.2 891.987C167.234 899.707 164.887 907.823 164.609 915.802C164.331 923.781 167.425 933.207 175.127 935.31L178.08 939.947Z" fill="#1AD8AA"/>
<path d="M174.729 921.885C179.132 883.315 196.049 803.502 242.178 795.27" stroke="white" stroke-width="0.75" stroke-miterlimit="10" stroke-linecap="round"/>
<path d="M135.308 1014.11H194.775C198.906 1014.11 202.287 1010.73 202.287 1006.6L207.295 920.842C207.295 916.711 203.915 913.33 199.783 913.33H130.3C126.169 913.33 122.788 916.71 122.788 920.842L127.796 1006.6C127.797 1010.73 131.177 1014.11 135.308 1014.11Z" fill="#CCE9FF"/>
<path d="M918.37 225.881V647.931C918.37 657.241 910.76 664.861 901.45 664.861H230.73C221.42 664.861 213.8 657.241 213.8 647.931V225.881C213.8 216.571 221.42 208.961 230.73 208.961H901.45C910.76 208.961 918.37 216.571 918.37 225.881Z" stroke="#ED6789" stroke-width="2" stroke-miterlimit="10"/>
<path d="M934.202 638.313L934.194 638.32C933.686 638.781 933.136 639.196 932.559 639.587C929.867 641.399 926.695 642.364 923.45 642.361H252.73C249.372 642.361 246.229 641.342 243.619 639.586L243.619 639.586C239.21 636.624 236.3 631.596 236.3 625.931V203.881C236.3 194.847 243.696 187.461 252.73 187.461H923.45C932.484 187.461 939.87 194.847 939.87 203.881V625.931C939.87 630.859 937.668 635.304 934.202 638.313Z" fill="white" stroke="#ED6789"/>
<path d="M575.715 552.43C648.459 552.43 707.43 493.459 707.43 420.715C707.43 347.971 648.459 289 575.715 289C502.971 289 444 347.971 444 420.715C444 493.459 502.971 552.43 575.715 552.43Z" fill="#CCE9FF"/>
<path d="M587.285 564C660.029 564 719 505.029 719 432.285C719 359.541 660.029 300.57 587.285 300.57C514.541 300.57 455.57 359.541 455.57 432.285C455.57 505.029 514.541 564 587.285 564Z" stroke="#CCE9FF" stroke-miterlimit="10"/>
<path d="M495.491 495.214L497.794 489.215C497.794 489.215 508.072 481.842 509.022 478.826C508.212 478.239 502.85 480.529 501.453 480.753C502.717 477.605 505.815 470.77 507.978 467.87C508.607 467.027 508.067 465.815 507.016 465.779C504.163 465.682 499.278 466.979 495.84 468.045C490.338 473.938 489.695 483.35 491.538 485.919C490 489.999 487.506 494.522 487.506 494.522L495.491 495.214Z" fill="#FFE3CA"/>
<path d="M489.5 488.5L497.5 494.5L479 539L470.472 523.954L489.5 488.5Z" fill="#ED6789"/>
<path d="M554.031 488.243L541.587 498.734C542.518 497.952 543.353 497.064 544.076 496.087L556.52 485.596C555.797 486.573 554.962 487.461 554.031 488.243Z" fill="#FCAD00"/>
<path d="M579.804 447.465L592.248 436.975L556.52 485.597L544.076 496.087L579.804 447.465Z" fill="#E3CBDF"/>
<g opacity="0.55">
<path d="M528.83 325.932C528.105 325.856 527.378 325.808 526.649 325.79L525.129 325.756C519.035 325.611 514.019 327.42 510.564 330.333L498.12 340.824C501.575 337.911 506.591 336.102 512.685 336.247L514.205 336.281C514.935 336.299 515.662 336.347 516.386 336.423C522.888 337.106 529.034 340.087 533.029 344.592L575.005 391.827L587.449 381.336L545.473 334.101C541.479 329.595 535.333 326.615 528.83 325.932ZM673.091 469.34L617.119 409.451L658.393 355.724C666.571 345.079 656.219 330.286 640.265 328.61C639.508 328.53 638.738 328.48 637.936 328.459C632.207 328.321 626.968 330.028 623.314 333.108L610.87 343.599C614.524 340.519 619.763 338.813 625.492 338.95C626.27 338.97 627.047 339.02 627.821 339.101C643.774 340.778 654.127 355.571 645.949 366.215L604.675 419.942L660.647 479.832C667.66 487.339 666.55 496.332 660.244 501.648L672.688 491.157C678.993 485.84 680.104 476.847 673.091 469.34Z" fill="#F6B3C4"/>
</g>
<path d="M627.82 339.099C643.773 340.776 654.126 355.569 645.948 366.213L604.674 419.94L660.646 479.829C671.503 491.45 662.891 506.631 645.677 506.222L644.099 506.182C643.367 506.165 642.636 506.117 641.908 506.04C635.466 505.363 629.372 502.426 625.368 497.992L579.804 447.462L544.076 496.084C540.604 500.807 534.18 503.546 526.971 503.374C526.201 503.356 525.431 503.306 524.664 503.226C508.703 501.548 498.351 486.749 506.544 476.098L550.414 419.118L497.711 362.623C486.869 351.004 495.48 335.837 512.687 336.246L514.207 336.28C514.937 336.298 515.664 336.346 516.388 336.422C522.89 337.105 529.036 340.086 533.031 344.591L575.007 391.826L608.364 346.265C611.836 341.527 618.275 338.775 625.491 338.948C626.269 338.969 627.046 339.019 627.82 339.099ZM420.5 715.499C412.5 734.499 351.5 902.499 370.5 974.499H393.5C393.5 974.499 456.5 775.499 456.5 771.499C456.5 793.499 464.5 955.499 470.5 974.499C482.5 976.499 499.5 974.499 499.5 974.499C499.5 974.499 508.5 751.499 502.5 714.499C470.5 710.499 420.5 715.499 420.5 715.499Z" fill="#ED6789"/>
<path d="M500.905 716.877L500.905 716.877C502.217 716.807 503.127 716.26 503.705 715.434L503.705 715.434C504.673 714.052 504.366 712.087 503.09 710.872C502.601 710.407 502.318 709.764 502.302 709.091M500.905 716.877L500.286 705.433C500.889 705.4 501.27 705.484 501.518 705.615C501.751 705.738 501.91 705.927 502.025 706.211C502.146 706.509 502.212 706.901 502.248 707.4C502.275 707.776 502.283 708.183 502.292 708.632C502.295 708.78 502.298 708.933 502.302 709.091M500.905 716.877L418.925 721.306C416.573 721.433 415.446 718.465 417.289 716.999C418.602 715.955 419.369 714.401 419.484 712.745C419.548 711.812 419.733 711.064 420.097 710.546C420.44 710.058 420.98 709.717 421.908 709.667C421.908 709.667 421.908 709.667 421.908 709.667L500.286 705.433L500.905 716.877ZM502.302 709.091L502.802 709.079M502.302 709.091C502.302 709.091 502.302 709.091 502.302 709.091L502.802 709.079M502.802 709.079C502.815 709.62 503.043 710.136 503.435 710.509L502.792 708.632C502.795 708.778 502.798 708.927 502.802 709.079Z" fill="white" stroke="#ED6789"/>
<path opacity="0.09" d="M500.932 717.376L418.952 721.806C416.114 721.959 414.754 718.377 416.978 716.608C418.174 715.657 418.88 714.236 418.985 712.711C419.118 710.781 419.762 709.283 421.881 709.168L500.259 704.934C502.875 704.793 502.741 706.599 502.802 709.079C502.815 709.62 503.043 710.136 503.435 710.509C504.862 711.868 505.246 714.106 504.115 715.72C503.443 716.681 502.386 717.298 500.932 717.376Z" fill="#874040"/>
<path d="M487.319 572.354L539.5 494.5L549.5 500.5L490 610C490 610 496.959 641.94 498.5 653.5C499.601 661.756 504.337 669.103 508.373 675.708C513.197 683.603 513.008 693.59 507.864 701.28C504.599 706.162 501.5 710.5 501.5 710.5C490.5 711.5 429.5 719.5 417.5 710.5C405.5 701.5 414.5 691.5 414.5 691.5C414.5 691.5 428.795 667.892 427.647 650.196C426.5 632.5 423.5 584.5 423.5 584.5L487.319 572.354Z" fill="#ED6789"/>
<path d="M541.227 495.536L544.5 490.5C544.5 490.5 540.5 478.5 541.5 475.5C542.5 475.5 545.5 480.5 546.5 481.5C547.323 478.209 548.823 470.856 548.771 467.239C548.756 466.187 549.904 465.522 550.777 466.11C553.144 467.705 556.34 471.621 558.5 474.5C559.5 482.5 554.5 490.5 551.5 491.5C548.5 495.5 548.1 499.66 548.1 499.66L541.227 495.536ZM373.46 974.5L373.5 983.5H387.5V974.5H373.46ZM476.46 974.5L476.5 983.5H490.5V974.5H476.46Z" fill="#FFE3CA"/>
<path d="M496.5 1004.5C496.5 1005.31 494.69 1006.04 491.99 1006.59C484.64 1008.07 470.69 1008.15 468.5 1004.5C467.13 1002.22 468.67 997.06 470.75 992.14C473.22 986.28 476.46 980.74 476.46 980.74H490.5C493.5 987.5 496.5 1001.5 496.5 1004.5ZM395.5 1004.5C395.5 1005.43 392.8 1006.24 388.99 1006.77C380.53 1007.94 366.57 1007.71 364.5 1004.26C363.21 1002.11 364.5 997.43 366.39 992.79C368.89 986.62 372.46 980.5 372.46 980.5H386.5C389.5 987.26 395.5 1001.5 395.5 1004.5Z" fill="#0E538C"/>
<path d="M388.99 1006.77C380.53 1007.94 366.57 1007.71 364.5 1004.26C363.21 1002.11 364.5 997.43 366.39 992.79C368.52 991.64 370.94 991 373.5 991C381.98 991 388.88 998.04 388.99 1006.77ZM491.99 1006.59C484.64 1008.07 470.69 1008.15 468.5 1004.5C467.13 1002.22 468.67 997.06 470.75 992.14C472.53 991.4 474.47 991 476.5 991C484.93 991 491.78 997.94 491.99 1006.59Z" fill="#1469A3"/>
<path d="M482 539.5C482 550.875 480.645 558.885 471.5 558.885C462.355 558.885 450.5 550.471 450.5 539.096C450.5 527.721 457.913 518.5 467.058 518.5C476.203 518.5 482 528.125 482 539.5Z" fill="#FFE3CA"/>
<path d="M468.5 526.5C479.5 524.5 495.5 506.5 480.5 499.5C465.5 492.5 437.5 490.5 425.5 509.5C413.5 528.5 428.5 543.5 430.5 553.5C432.5 563.5 424 571 412 581C400 591 382.5 630.5 412.5 644.5C442.5 658.5 490.5 647.5 493.5 602.5C496.5 557.5 456.5 551.5 456.5 547.5C456.5 543.5 468.5 526.5 468.5 526.5Z" fill="#0E538C"/>
<path d="M462.524 541.555C465.336 540.751 466.747 537.059 465.674 533.31C464.602 529.56 461.453 527.173 458.641 527.977C455.829 528.782 454.418 532.473 455.49 536.222C456.563 539.972 459.712 542.359 462.524 541.555Z" fill="#FFE3CA"/>
<path d="M940.37 203.881V225.001H235.8V203.881C235.8 194.571 243.42 186.961 252.73 186.961H923.45C932.76 186.961 940.37 194.571 940.37 203.881ZM483.538 275.563H269.462C265.358 275.563 262 272.205 262 268.101V263.463C262 259.359 265.358 256.001 269.462 256.001H483.539C487.643 256.001 491.001 259.359 491.001 263.463V268.101C491 272.205 487.642 275.563 483.538 275.563ZM423.609 307.001H268.391C264.876 307.001 262 304.125 262 300.61V293.831C262 290.316 264.876 287.44 268.391 287.44H423.609C427.124 287.44 430 290.316 430 293.831V300.61C430 304.125 427.124 307.001 423.609 307.001ZM440.293 338.001H268.707C265.018 338.001 262 334.983 262 331.294V325.146C262 321.457 265.018 318.439 268.707 318.439H440.294C443.983 318.439 447.001 321.457 447.001 325.146V331.294C447 334.983 443.982 338.001 440.293 338.001ZM914 625.001H804C797.4 625.001 792 619.601 792 613.001V518.001C792 511.401 797.4 506.001 804 506.001H914C920.6 506.001 926 511.401 926 518.001V613.001C926 619.601 920.6 625.001 914 625.001Z" fill="#ED6789"/>
<path opacity="0.2" d="M483.538 275.562H269.462C265.358 275.562 262 272.204 262 268.1V263.462C262 259.358 265.358 256 269.462 256H483.539C487.643 256 491.001 259.358 491.001 263.462V268.1C491 272.204 487.642 275.562 483.538 275.562ZM423.609 307H268.391C264.876 307 262 304.124 262 300.609V293.83C262 290.315 264.876 287.439 268.391 287.439H423.609C427.124 287.439 430 290.315 430 293.83V300.609C430 304.124 427.124 307 423.609 307ZM440.293 338H268.707C265.018 338 262 334.982 262 331.293V325.145C262 321.456 265.018 318.438 268.707 318.438H440.294C443.983 318.438 447.001 321.456 447.001 325.145V331.293C447 334.982 443.982 338 440.293 338ZM914 625H804C797.4 625 792 619.6 792 613V518C792 511.4 797.4 506 804 506H914C920.6 506 926 511.4 926 518V613C926 619.6 920.6 625 914 625Z" fill="#ED6789"/>
</svg>
