<svg width="572" height="241" viewBox="0 0 572 241" fill="none" xmlns="http://www.w3.org/2000/svg">
<path d="M64.3793 1.73289C59.0004 4.54645 58.0902 9.01504 61.8967 13.3181C63.8 15.4697 65.0413 16.0489 68.5169 16.3799C73.813 16.8764 76.13 16.2972 78.8608 13.7319C82.9984 9.9253 81.3434 3.55343 75.6335 1.15363C71.8269 -0.418652 68.0204 -0.253149 64.3793 1.73289Z" fill="white"/>
<path d="M361.625 0.905164C354.426 3.80147 353.433 11.0836 359.639 14.9729C362.039 16.3797 363.446 16.7107 367.583 16.3797C371.969 16.0487 372.962 15.635 374.948 13.4007C377.927 10.0906 378.01 6.78053 375.279 3.80147C371.886 0.160399 366.425 -0.998124 361.625 0.905164Z" fill="white"/>
<path d="M14.8953 46.3365V86.8848L12.4955 89.5329C10.5095 91.7672 9.51644 92.181 5.04785 92.512L0 92.843V98.5528V104.263H54.6161C107.494 104.263 109.48 104.18 114.28 102.608C120.073 100.622 122.638 99.2148 126.445 95.6565C131.823 90.6914 132.403 88.5399 132.403 72.8998C132.403 60.9836 132.154 58.0873 130.83 54.6117C127.355 45.4263 119.576 38.9716 106.998 34.8341C92.7646 30.0345 75.635 29.7034 58.2572 33.9238C50.313 35.8271 46.5064 37.8131 41.2103 42.9437L37.2382 46.6675V26.2279V5.78822H26.0668H14.8953V46.3365ZM89.289 43.1092C99.8813 44.7643 106.998 49.6466 109.646 57.0115C111.466 62.2249 111.466 85.7263 109.563 88.3744C106.584 92.5947 106.088 92.6775 68.6839 92.6775H33.8454L35.2522 89.9467C36.2452 88.0434 36.8245 84.154 37.2382 76.5409C37.8175 63.9626 38.8105 61.3146 45.5134 55.1082C51.8025 49.2328 62.974 44.5987 74.642 43.1092C82.0896 42.1162 83.4137 42.1162 89.289 43.1092Z" fill="white"/>
<path d="M308.664 46.336V86.8843L306.264 89.5323L303.864 92.2631L269.026 92.5114L234.187 92.7596V76.7058C234.187 53.5354 232.781 48.322 224.671 40.6261C216.644 33.0129 207.459 29.7856 194.218 29.7856C176.013 29.7856 162.773 36.985 156.566 50.308C154.415 54.7766 154.332 55.6869 154.332 67.8514C154.332 80.2641 154.415 80.8434 156.649 85.3947C162.193 96.7317 173.779 101.697 198.77 103.6L212.01 104.593L211.431 108.317C210.355 115.682 206.383 121.805 201.004 124.619C195.791 127.267 189.998 128.343 177.337 128.839L164.676 129.336V135.046V140.673H173.365C191.736 140.673 204.231 138.439 214.906 133.225C225.664 127.929 231.788 119.571 233.112 108.234L233.608 104.262H399.442C551.126 104.262 565.608 104.179 568.173 102.938C573.304 100.456 573.304 100.704 568.008 78.6091C561.387 51.5493 548.313 36.5713 526.88 31.8544C521.749 30.6959 517.612 30.5304 507.268 30.7786C499.986 30.9441 493.779 31.3579 493.448 31.6889C493.117 32.1027 494.028 34.668 495.517 37.4815L498.165 42.6121H508.675C518.357 42.6121 519.681 42.7776 523.818 44.7637C529.776 47.5772 532.921 50.308 536.727 56.0179C540.617 61.8933 543.844 70.1684 546.658 81.2572C547.816 85.974 548.892 90.4426 549.14 91.1874C549.554 92.5941 546.161 92.6769 486.58 92.6769H423.606L424.93 90.1943C427.992 84.2362 427.164 58.997 423.689 52.1286C417.896 40.7088 404.242 33.3439 385.209 31.4407C370.976 29.9511 351.612 32.5992 342.509 37.2333C340.606 38.2263 337.213 40.7088 335.062 42.7776L331.007 46.5842V26.1446V5.78764H319.835H308.664V46.336ZM202.493 43.5224C206.383 45.7567 209.527 49.4805 210.934 53.7009C211.513 55.4386 211.844 63.3 211.844 74.7198V92.9251L202.99 92.3459C186.522 91.2701 179.406 88.2083 176.923 81.2572C176.261 79.3539 175.847 74.2233 175.847 67.4376C175.847 57.3419 176.013 56.4317 178.165 51.8803C180.813 46.5842 184.371 43.4396 189.667 41.7846C194.053 40.3778 197.942 40.9571 202.493 43.5224ZM390.588 44.9292C396.298 46.998 402.422 52.8733 403.746 57.5074C404.242 59.328 404.656 66.6929 404.656 73.8923V87.0498L401.842 89.8633L399.029 92.6769H363.363H327.614L329.104 89.9461C330.097 88.0428 330.593 84.4017 330.924 76.5403C331.421 66.7756 331.669 65.4516 333.655 61.976C337.875 54.7766 345.157 49.5633 356.081 45.9222C367.914 41.9501 381.568 41.5364 390.588 44.9292Z" fill="white"/>
<path d="M307.008 164.919C297.657 167.071 288.637 173.443 283.01 181.801C271.342 199.51 278.128 225.99 296.912 236.086C301.712 238.734 310.401 240.803 316.524 240.803C332.578 240.803 347.805 228.555 352.108 212.253C356.163 196.448 349.873 179.898 336.302 170.878C327.779 165.168 316.193 162.851 307.008 164.919ZM327.117 173.774C340.688 180.229 347.308 195.124 343.998 211.84C342.426 220.198 339.364 225.411 334.233 228.886C326.455 234.1 311.808 234.845 302.457 230.542C292.278 225.907 286.568 216.722 285.741 203.895C284.251 182.049 294.844 170.795 316.111 171.622C321.324 171.788 324.138 172.284 327.117 173.774Z" fill="white"/>
<path d="M390.587 164.919C373.458 168.974 360.797 184.614 360.797 201.744C360.797 216.143 368.576 229.631 380.492 236.086C389.015 240.72 400.849 241.961 409.786 239.148C432.377 232.196 443.3 206.709 432.956 185.524C425.591 170.381 406.641 161.195 390.587 164.919ZM410.448 173.525C415.744 175.925 422.116 181.966 424.764 187.179C428.239 193.965 429.315 203.316 427.66 211.757C424.516 227.397 415.578 233.934 398.449 233.189C389.346 232.776 383.388 230.376 377.844 224.831C371.141 218.129 368.493 209.605 369.32 197.937C370.396 182.876 375.775 175.677 388.519 172.45C394.394 170.877 405.814 171.457 410.448 173.525Z" fill="white"/>
<path d="M3.88981 166.906C4.71733 169.802 4.71733 233.686 3.97256 237.245L3.3933 239.976H8.77216C13.7373 239.976 14.151 239.81 13.5718 238.486C13.158 237.741 12.7442 229.88 12.5787 221.108L12.3305 205.22H31.0324H49.7342L49.4032 220.694C49.2377 229.301 48.824 237.079 48.493 238.072C47.8309 239.893 47.9964 239.976 53.3753 239.976C58.7542 239.976 58.8369 239.893 58.1749 238.072C57.8439 237.079 57.5129 220.943 57.5129 202.324C57.5129 183.622 57.8439 167.568 58.1749 166.492C58.8369 164.754 58.7542 164.672 53.3753 164.672C47.9964 164.672 47.8309 164.754 48.493 166.492C48.824 167.568 49.2377 175.181 49.4032 183.456L49.7342 198.6H31.0324H12.2477L12.5787 183.042C12.7442 174.519 13.2407 166.906 13.5718 166.078C14.151 164.837 13.6545 164.672 8.77216 164.672H3.31055L3.88981 166.906Z" fill="white"/>
<path d="M74.1441 168.975C74.9716 172.119 75.3027 179.898 75.3027 197.689C75.3027 213.743 75.6337 223.094 76.2957 225.163C77.6197 229.797 82.0883 234.597 87.4671 237.245C91.4392 239.148 93.2598 239.479 98.4731 239.479C107.245 239.479 112.624 237.493 121.561 231.121L123.547 229.714L123.133 234.845L122.802 239.976H127.519H132.319L131.491 237.659C130.498 234.762 130.829 168.23 131.905 166.078C132.484 164.837 132.07 164.672 127.022 164.672C122.057 164.672 121.561 164.837 122.14 166.078C122.554 166.906 122.968 178.739 123.133 192.393C123.464 221.108 123.299 221.853 116.596 227.894C110.141 233.686 101.535 235.672 93.2598 233.19C88.7912 231.866 83.9916 227.149 82.8331 223.011C81.4263 217.964 81.6745 171.788 83.0813 167.733L84.2398 164.672H78.6127H73.0684L74.1441 168.975Z" fill="white"/>
<path d="M147.876 166.823C148.786 170.05 148.703 235.755 147.793 238.238L147.131 240.224L157.309 239.727C172.536 239.065 181.307 235.838 188.838 228.307C194.63 222.515 197.858 215.233 198.354 206.626C199.099 194.131 196.037 184.615 188.838 177.25C181.307 169.636 170.881 165.747 155.82 164.92L147.214 164.423L147.876 166.823ZM167.157 171.871C178.494 175.015 185.859 182.132 189.086 193.138C191.237 200.586 190.575 212.502 187.596 218.543C182.797 228.39 174.853 233.438 163.267 234.017L156.399 234.431V202.075V169.719L159.544 170.216C161.199 170.381 164.674 171.209 167.157 171.871Z" fill="white"/>
<path d="M210.77 166.906C211.68 170.05 211.598 234.845 210.687 237.659L210.025 239.976H215.57C220.535 239.976 221.031 239.81 220.452 238.486C220.038 237.741 219.625 229.88 219.459 221.108L219.211 205.22H237.913H256.697L256.284 220.694C256.118 229.301 255.704 237.079 255.291 238.072C254.711 239.893 254.877 239.976 260.256 239.976C265.635 239.976 265.717 239.893 265.055 238.072C264.724 237.079 264.393 220.943 264.393 202.324C264.393 183.622 264.724 167.568 265.055 166.492C265.717 164.754 265.635 164.672 260.256 164.672C254.877 164.672 254.711 164.754 255.373 166.492C255.704 167.568 256.118 175.181 256.284 183.456L256.615 198.6H237.913H219.128L219.459 183.042C219.625 174.519 220.121 166.906 220.452 166.078C221.031 164.837 220.535 164.672 215.653 164.672H210.191L210.77 166.906Z" fill="white"/>
<path d="M449.092 166.823C450.003 170.05 449.92 235.755 449.01 238.238L448.348 240.224L458.526 239.727C474.001 238.982 482.69 235.755 490.137 228.142C496.013 222.101 499.074 215.15 499.571 206.626C500.647 189.911 494.358 177.663 481.2 170.712C474.497 167.237 467.381 165.499 457.037 164.92L448.43 164.423L449.092 166.823ZM471.518 172.781C484.841 177.912 491.544 188.421 491.544 204.475C491.544 213.909 489.558 219.287 484.014 225.411C478.718 231.204 473.504 233.521 464.484 234.017L457.616 234.431V202.158V169.885L462.498 170.547C465.229 170.96 469.284 171.954 471.518 172.781Z" fill="white"/>
<path d="M511.985 166.906C512.895 170.05 512.813 234.845 511.902 237.659L511.24 239.976H516.785C521.75 239.976 522.246 239.81 521.667 238.486C521.253 237.741 520.839 229.88 520.674 221.108L520.426 205.22H539.128H557.829L557.498 220.694C557.333 229.301 556.919 237.079 556.588 238.072C555.926 239.893 556.092 239.976 561.47 239.976C566.849 239.976 566.932 239.893 566.27 238.072C565.939 237.079 565.608 220.943 565.608 202.324C565.608 183.622 565.939 167.568 566.27 166.492C566.932 164.754 566.849 164.672 561.47 164.672C556.092 164.672 555.926 164.754 556.588 166.492C556.919 167.568 557.333 175.181 557.498 183.456L557.829 198.6H539.128H520.343L520.674 183.042C520.839 174.519 521.336 166.906 521.667 166.078C522.246 164.837 521.75 164.672 516.867 164.672H511.406L511.985 166.906Z" fill="white"/>
</svg>
