<svg width="319" height="257" viewBox="0 0 319 257" fill="none" xmlns="http://www.w3.org/2000/svg">
<path d="M137.47 39.1001C185.57 44.4801 206.68 2.7801 254.35 8.2401C296.89 13.1101 326.23 43.4201 316.3 84.2401C307.48 120.48 265.49 131.85 250.56 165.8C234.73 201.8 222.46 240.59 174.66 253.12C80.81 277.72 35.22 162.24 28.83 95.9101C26.38 70.4501 22.1 9.5801 55.34 1.7001C88.79 -6.2399 108 35.8001 137.47 39.1001Z" fill="#ED6789"/>
<path opacity="0.9" d="M137.47 39.1001C185.57 44.4801 206.68 2.7801 254.35 8.2401C296.89 13.1101 326.23 43.4201 316.3 84.2401C307.48 120.48 265.49 131.85 250.56 165.8C234.73 201.8 222.46 240.59 174.66 253.12C80.81 277.72 35.22 162.24 28.83 95.9101C26.38 70.4501 22.1 9.5801 55.34 1.7001C88.79 -6.2399 108 35.8001 137.47 39.1001Z" fill="white"/>
<path d="M1.11851 114.359L0.121094 114.431L1.44952 132.873L2.44694 132.801L1.11851 114.359Z" fill="#ED6789"/>
<path d="M3.12437 142.322L2.12695 142.394L2.627 149.336L3.62441 149.264L3.12437 142.322Z" fill="#ED6789"/>
<path d="M234.71 227.16H20.5499C18.166 227.117 15.8824 226.193 14.1393 224.566C12.3962 222.939 11.3171 220.725 11.1099 218.35L0.589928 72.2196C0.492082 71.0926 0.631383 69.9576 0.998848 68.8877C1.36631 67.8179 1.9538 66.8368 2.72347 66.0078C3.49313 65.1788 4.42791 64.5202 5.46759 64.0744C6.50727 63.6286 7.6288 63.4056 8.75993 63.4196H222.92C225.302 63.4622 227.585 64.3847 229.327 66.0094C231.07 67.6341 232.15 69.8461 232.36 72.2196L242.88 218.35C242.978 219.477 242.838 220.612 242.471 221.683C242.104 222.753 241.516 223.735 240.747 224.565C239.977 225.394 239.043 226.054 238.003 226.501C236.963 226.948 235.842 227.172 234.71 227.16Z" fill="#ED6789"/>
<path d="M235.53 227.16H21.3702C18.9864 227.117 16.7027 226.193 14.9596 224.566C13.2165 222.939 12.1374 220.725 11.9302 218.35L1.41024 72.2196C1.31239 71.0926 1.45169 69.9576 1.81915 68.8877C2.18662 67.8179 2.7741 66.8368 3.54377 66.0078C4.31344 65.1788 5.24822 64.5202 6.2879 64.0744C7.32758 63.6286 8.44911 63.4056 9.58024 63.4196H223.74C226.123 63.4622 228.405 64.3847 230.148 66.0094C231.891 67.6341 232.971 69.8461 233.18 72.2196L243.7 218.35C243.8 219.477 243.661 220.613 243.295 221.684C242.928 222.756 242.341 223.738 241.571 224.568C240.801 225.398 239.866 226.058 238.825 226.504C237.785 226.95 236.662 227.174 235.53 227.16Z" fill="#ED6789"/>
<path opacity="0.5" d="M235.53 227.16H21.3702C18.9864 227.117 16.7027 226.193 14.9596 224.566C13.2165 222.939 12.1374 220.725 11.9302 218.35L1.41024 72.2196C1.31239 71.0926 1.45169 69.9576 1.81915 68.8877C2.18662 67.8179 2.7741 66.8368 3.54377 66.0078C4.31344 65.1788 5.24822 64.5202 6.2879 64.0744C7.32758 63.6286 8.44911 63.4056 9.58024 63.4196H223.74C226.123 63.4622 228.405 64.3847 230.148 66.0094C231.891 67.6341 232.971 69.8461 233.18 72.2196L243.7 218.35C243.8 219.477 243.661 220.613 243.295 221.684C242.928 222.756 242.341 223.738 241.571 224.568C240.801 225.398 239.866 226.058 238.825 226.504C237.785 226.95 236.662 227.174 235.53 227.16Z" fill="white"/>
<path d="M224.06 67.8193H9.90029H9.18029C3.71029 68.2693 4.83029 76.5993 10.3503 76.5993H224.87C230.4 76.5993 230.32 68.2693 224.78 67.8193H224.06Z" fill="#ED6789"/>
<path d="M15.4797 72.2199C15.5007 72.4777 15.4674 72.7371 15.382 72.9812C15.2966 73.2254 15.1609 73.4489 14.9838 73.6373C14.8066 73.8258 14.5919 73.975 14.3535 74.0754C14.1151 74.1757 13.8583 74.225 13.5997 74.2199C13.0562 74.2123 12.5348 74.0037 12.1359 73.6344C11.7371 73.2651 11.4891 72.7612 11.4397 72.2199C11.4188 71.963 11.4518 71.7045 11.5366 71.461C11.6214 71.2176 11.7562 70.9945 11.9323 70.8062C12.1083 70.6179 12.3218 70.4685 12.559 70.3675C12.7962 70.2666 13.0519 70.2163 13.3097 70.2199C13.8549 70.2251 14.3788 70.4326 14.7798 70.8021C15.1807 71.1716 15.4302 71.6769 15.4797 72.2199Z" fill="#FAFAFA"/>
<path d="M22.3498 72.2199C22.3708 72.4777 22.3376 72.7371 22.2521 72.9812C22.1667 73.2254 22.0311 73.4489 21.8539 73.6373C21.6767 73.8258 21.462 73.975 21.2236 74.0754C20.9852 74.1757 20.7284 74.225 20.4698 74.2199C19.9263 74.2123 19.4049 74.0037 19.006 73.6344C18.6072 73.2651 18.3592 72.7612 18.3098 72.2199C18.2889 71.963 18.3219 71.7045 18.4067 71.461C18.4915 71.2176 18.6263 70.9945 18.8024 70.8062C18.9785 70.6179 19.1919 70.4685 19.4291 70.3675C19.6664 70.2666 19.922 70.2163 20.1798 70.2199C20.7251 70.2251 21.249 70.4326 21.6499 70.8021C22.0508 71.1716 22.3003 71.6769 22.3498 72.2199Z" fill="#FAFAFA"/>
<path d="M29.2099 72.2191C29.2308 72.4761 29.1978 72.7346 29.113 72.978C29.0281 73.2215 28.8934 73.4445 28.7173 73.6328C28.5412 73.8211 28.3277 73.9705 28.0905 74.0715C27.8533 74.1725 27.5976 74.2228 27.3399 74.2191C26.7957 74.2137 26.273 74.0059 25.8737 73.6362C25.4744 73.2664 25.227 72.7613 25.1799 72.2191C25.1573 71.9618 25.1893 71.7027 25.2735 71.4585C25.3577 71.2144 25.4924 70.9907 25.6688 70.8021C25.8452 70.6134 26.0593 70.464 26.2973 70.3636C26.5352 70.2632 26.7916 70.2139 27.0499 70.2191C27.5934 70.2268 28.1148 70.4353 28.5137 70.8046C28.9125 71.1739 29.1605 71.6778 29.2099 72.2191Z" fill="#FAFAFA"/>
<path d="M229.85 212.58H24.9996C24.1343 212.566 23.3051 212.23 22.6731 211.639C22.0412 211.048 21.6514 210.243 21.5796 209.38L12.9296 89.21C12.8911 88.7977 12.9408 88.3818 13.0753 87.9901C13.2098 87.5984 13.4261 87.2398 13.7099 86.9381C13.9936 86.6364 14.3383 86.3985 14.721 86.2402C15.1037 86.0819 15.5157 86.0069 15.9296 86.02H220.83C221.694 86.0319 222.523 86.3652 223.155 86.9549C223.788 87.5446 224.178 88.3485 224.25 89.21L232.91 209.38C232.947 209.798 232.895 210.219 232.756 210.614C232.618 211.01 232.396 211.372 232.106 211.675C231.816 211.978 231.465 212.216 231.076 212.372C230.687 212.528 230.269 212.599 229.85 212.58Z" fill="white"/>
<path d="M143.53 166.799L140.19 120.479L130.09 114.399H102.28L106.06 166.799H143.53Z" fill="white"/>
<path d="M143.53 167.279H106.06C105.936 167.282 105.816 167.237 105.724 167.153C105.633 167.069 105.578 166.953 105.57 166.829L101.8 114.429C101.795 114.363 101.804 114.297 101.827 114.235C101.849 114.173 101.884 114.117 101.93 114.069C101.974 114.02 102.028 113.98 102.088 113.953C102.149 113.925 102.214 113.91 102.28 113.909H130.09C130.178 113.912 130.264 113.936 130.34 113.979L140.44 120.059C140.508 120.098 140.565 120.153 140.607 120.219C140.649 120.286 140.674 120.361 140.68 120.439L144 166.759C144.007 166.827 143.999 166.895 143.976 166.959C143.954 167.023 143.918 167.081 143.87 167.129C143.827 167.176 143.774 167.213 143.716 167.239C143.657 167.265 143.594 167.279 143.53 167.279ZM106.53 166.279H143L139.72 120.729L130 114.879H102.8L106.53 166.279Z" fill="#ED6789"/>
<path d="M140.19 120.479L130.09 114.399L133.8 122.459L140.19 120.479Z" fill="#EBEBEB"/>
<path d="M133.8 122.939C133.707 122.939 133.617 122.912 133.539 122.863C133.462 122.813 133.399 122.743 133.36 122.659L129.65 114.599C129.606 114.505 129.594 114.399 129.614 114.297C129.633 114.194 129.684 114.101 129.76 114.029C129.839 113.961 129.938 113.92 130.042 113.911C130.146 113.902 130.25 113.926 130.34 113.979L140.44 120.059C140.521 120.108 140.587 120.179 140.63 120.264C140.672 120.349 140.689 120.445 140.68 120.539C140.667 120.631 140.628 120.718 140.568 120.789C140.508 120.859 140.429 120.912 140.34 120.939L133.94 122.939H133.8ZM131.19 115.619L134.06 121.869L139.06 120.339L131.19 115.619Z" fill="#ED6789"/>
<path d="M118 137.999C118.015 138.271 117.974 138.543 117.88 138.798C117.787 139.054 117.642 139.287 117.454 139.485C117.267 139.683 117.042 139.84 116.792 139.947C116.541 140.054 116.272 140.11 116 140.109C115.429 140.099 114.882 139.878 114.465 139.488C114.048 139.098 113.789 138.568 113.74 137.999C113.714 137.725 113.747 137.448 113.837 137.187C113.927 136.926 114.071 136.687 114.26 136.487C114.45 136.286 114.679 136.128 114.935 136.023C115.19 135.919 115.464 135.869 115.74 135.879C116.312 135.892 116.859 136.115 117.276 136.507C117.693 136.898 117.951 137.429 118 137.999Z" fill="#ED6789"/>
<path d="M131.7 138C131.725 138.274 131.69 138.55 131.6 138.809C131.51 139.069 131.365 139.306 131.176 139.506C130.987 139.705 130.757 139.862 130.503 139.966C130.249 140.071 129.975 140.119 129.7 140.11C129.128 140.1 128.58 139.879 128.161 139.49C127.742 139.1 127.482 138.57 127.43 138C127.414 137.727 127.454 137.454 127.547 137.198C127.64 136.941 127.785 136.706 127.972 136.507C128.159 136.309 128.385 136.151 128.636 136.043C128.887 135.935 129.157 135.879 129.43 135.88C130.005 135.888 130.555 136.109 130.975 136.501C131.395 136.893 131.653 137.428 131.7 138Z" fill="#ED6789"/>
<path d="M135.58 151.74C135.458 151.738 135.342 151.69 135.253 151.607C135.164 151.524 135.11 151.411 135.1 151.29C134.85 147.88 129.51 145.11 123.2 145.11C119.01 145.11 115.25 146.36 113.39 148.36C113.008 148.728 112.709 149.174 112.512 149.667C112.315 150.16 112.226 150.689 112.25 151.22C112.255 151.285 112.246 151.351 112.225 151.414C112.204 151.476 112.171 151.534 112.128 151.583C112.041 151.684 111.918 151.745 111.785 151.755C111.652 151.764 111.521 151.72 111.421 151.633C111.321 151.546 111.259 151.422 111.25 151.29C111.22 150.627 111.329 149.965 111.57 149.347C111.812 148.728 112.179 148.167 112.65 147.7C114.65 145.51 118.72 144.14 123.17 144.14C130.1 144.14 135.75 147.25 136.03 151.22C136.034 151.283 136.026 151.346 136.005 151.406C135.985 151.466 135.953 151.521 135.911 151.568C135.869 151.615 135.818 151.654 135.761 151.682C135.705 151.71 135.643 151.726 135.58 151.73V151.74Z" fill="#ED6789"/>
<path d="M110.17 133.72C110.048 133.717 109.931 133.671 109.84 133.59C109.749 133.498 109.698 133.374 109.698 133.245C109.698 133.116 109.749 132.992 109.84 132.9L111.97 130.61C112.062 130.522 112.183 130.473 112.31 130.473C112.437 130.473 112.559 130.522 112.65 130.61C112.695 130.654 112.731 130.707 112.755 130.766C112.779 130.824 112.791 130.887 112.791 130.95C112.791 131.013 112.779 131.076 112.755 131.134C112.731 131.192 112.695 131.245 112.65 131.29L110.52 133.58C110.474 133.626 110.42 133.662 110.36 133.686C110.299 133.71 110.235 133.721 110.17 133.72Z" fill="#ED6789"/>
<path d="M134.58 133.72C134.458 133.714 134.342 133.668 134.25 133.59L131.8 131.3C131.753 131.255 131.717 131.201 131.691 131.142C131.666 131.083 131.653 131.019 131.653 130.955C131.653 130.89 131.666 130.827 131.691 130.767C131.717 130.708 131.753 130.655 131.8 130.61C131.891 130.522 132.013 130.473 132.14 130.473C132.266 130.473 132.388 130.522 132.48 130.61L134.93 132.9C134.974 132.944 135.01 132.997 135.034 133.056C135.058 133.114 135.071 133.177 135.071 133.24C135.071 133.303 135.058 133.366 135.034 133.424C135.01 133.482 134.974 133.535 134.93 133.58C134.835 133.669 134.71 133.719 134.58 133.72Z" fill="#ED6789"/>
<path d="M77.5 200.42L78.02 197.62C79.3133 197.62 80.44 197.587 81.4 197.52C82.36 197.44 83.1533 197.327 83.78 197.18C84.42 197.02 84.8933 196.813 85.2 196.56C85.52 196.307 85.68 196 85.68 195.64C85.68 195.16 85.6 194.587 85.44 193.92C85.28 193.24 85.0733 192.553 84.82 191.86L87.44 191.1C87.6133 191.553 87.78 192.053 87.94 192.6C88.1 193.133 88.2267 193.673 88.32 194.22C88.4267 194.753 88.48 195.253 88.48 195.72C88.48 196.547 88.3 197.26 87.94 197.86C87.58 198.447 86.98 198.933 86.14 199.32C85.3133 199.693 84.1933 199.967 82.78 200.14C81.3667 200.327 79.6067 200.42 77.5 200.42ZM77.48 200.42C76.04 200.42 74.82 200.307 73.82 200.08C72.8333 199.867 72.0267 199.56 71.4 199.16C70.7867 198.747 70.34 198.267 70.06 197.72C69.78 197.173 69.64 196.573 69.64 195.92C69.64 195.493 69.6733 195.067 69.74 194.64C69.82 194.2 69.9133 193.773 70.02 193.36C70.14 192.947 70.2467 192.573 70.34 192.24L72.84 192.82C72.7867 193.06 72.7267 193.32 72.66 193.6C72.5933 193.88 72.54 194.153 72.5 194.42C72.46 194.673 72.44 194.907 72.44 195.12C72.44 195.613 72.6133 196.053 72.96 196.44C73.32 196.813 73.9067 197.107 74.72 197.32C75.5333 197.52 76.6267 197.62 78 197.62L78.4 199.78L77.48 200.42ZM80.78 191.28C80.3933 191.28 80.06 191.147 79.78 190.88C79.5133 190.6 79.38 190.273 79.38 189.9C79.38 189.513 79.5133 189.18 79.78 188.9C80.06 188.62 80.3933 188.48 80.78 188.48C81.1533 188.48 81.4733 188.62 81.74 188.9C82.0067 189.18 82.14 189.513 82.14 189.9C82.14 190.273 82.0067 190.6 81.74 190.88C81.4733 191.147 81.1533 191.28 80.78 191.28ZM77.32 191.26C76.9333 191.26 76.6 191.127 76.32 190.86C76.0533 190.58 75.92 190.253 75.92 189.88C75.92 189.493 76.0533 189.16 76.32 188.88C76.6 188.6 76.9333 188.46 77.32 188.46C77.6933 188.46 78.0133 188.6 78.28 188.88C78.5467 189.16 78.68 189.493 78.68 189.88C78.68 190.253 78.5467 190.58 78.28 190.86C78.0133 191.127 77.6933 191.26 77.32 191.26ZM95.8283 200.1C94.5883 200.1 93.6283 199.973 92.9483 199.72C92.2816 199.467 91.8149 199.073 91.5483 198.54C91.2816 197.993 91.1283 197.307 91.0883 196.48L90.6683 185.36H93.4683L93.8883 195.14C93.9149 195.753 93.9816 196.213 94.0883 196.52C94.1949 196.827 94.3949 197.033 94.6883 197.14C94.9949 197.247 95.4416 197.3 96.0283 197.3C96.5349 197.3 96.8949 197.433 97.1083 197.7C97.3349 197.953 97.4483 198.273 97.4483 198.66C97.4483 199.073 97.3083 199.42 97.0283 199.7C96.7483 199.967 96.3483 200.1 95.8283 200.1ZM95.8555 200.1L96.0555 197.3C96.6421 197.3 97.1021 197.26 97.4355 197.18C97.7821 197.1 98.0288 196.953 98.1755 196.74C98.3221 196.513 98.3955 196.193 98.3955 195.78C98.3955 195.407 98.3421 194.96 98.2355 194.44C98.1421 193.92 98.0155 193.38 97.8555 192.82C97.6955 192.26 97.5355 191.747 97.3755 191.28L100.135 190.52C100.295 190.973 100.455 191.5 100.615 192.1C100.775 192.7 100.909 193.32 101.015 193.96C101.135 194.587 101.195 195.193 101.195 195.78C101.195 196.513 101.102 197.133 100.915 197.64C100.729 198.133 100.469 198.547 100.135 198.88C99.8155 199.2 99.4288 199.453 98.9755 199.64C98.5355 199.813 98.0488 199.933 97.5155 200C96.9821 200.067 96.4288 200.1 95.8555 200.1ZM98.7355 188.86C98.3221 188.86 97.9688 188.72 97.6755 188.44C97.3955 188.16 97.2555 187.813 97.2555 187.4C97.2555 186.987 97.3955 186.633 97.6755 186.34C97.9688 186.047 98.3221 185.9 98.7355 185.9C99.1355 185.9 99.4755 186.047 99.7555 186.34C100.049 186.633 100.195 186.987 100.195 187.4C100.195 187.813 100.049 188.16 99.7555 188.44C99.4755 188.72 99.1355 188.86 98.7355 188.86ZM108.543 200.1C107.303 200.1 106.343 199.973 105.663 199.72C104.996 199.467 104.53 199.073 104.263 198.54C103.996 197.993 103.843 197.307 103.803 196.48L103.383 185.36H106.183L106.603 195.14C106.63 195.753 106.696 196.213 106.803 196.52C106.91 196.827 107.11 197.033 107.403 197.14C107.71 197.247 108.156 197.3 108.743 197.3C109.25 197.3 109.61 197.433 109.823 197.7C110.05 197.953 110.163 198.273 110.163 198.66C110.163 199.073 110.023 199.42 109.743 199.7C109.463 199.967 109.063 200.1 108.543 200.1ZM108.57 200.1L108.77 197.3C109.25 197.3 109.664 197.253 110.01 197.16C110.357 197.067 110.65 196.88 110.89 196.6C111.13 196.307 111.33 195.88 111.49 195.32C111.664 194.76 111.817 194.013 111.95 193.08L114.57 193.52C114.544 193.72 114.504 193.953 114.45 194.22C114.41 194.487 114.37 194.76 114.33 195.04C114.304 195.307 114.29 195.56 114.29 195.8C114.29 196.04 114.337 196.253 114.43 196.44C114.524 196.627 114.67 196.787 114.87 196.92C115.084 197.04 115.357 197.133 115.69 197.2C116.037 197.267 116.457 197.3 116.95 197.3C117.457 197.3 117.817 197.433 118.03 197.7C118.244 197.953 118.35 198.273 118.35 198.66C118.35 199.073 118.21 199.42 117.93 199.7C117.664 199.967 117.27 200.1 116.75 200.1C116.15 200.1 115.604 200.053 115.11 199.96C114.63 199.867 114.21 199.713 113.85 199.5C113.504 199.273 113.217 198.98 112.99 198.62C112.777 198.247 112.644 197.793 112.59 197.26H113.55C113.31 197.9 113.004 198.413 112.63 198.8C112.27 199.173 111.864 199.453 111.41 199.64C110.957 199.827 110.484 199.947 109.99 200C109.51 200.067 109.037 200.1 108.57 200.1ZM114.15 204.74C113.764 204.74 113.43 204.6 113.15 204.32C112.884 204.053 112.75 203.733 112.75 203.36C112.75 202.973 112.884 202.64 113.15 202.36C113.43 202.08 113.764 201.94 114.15 201.94C114.524 201.94 114.844 202.08 115.11 202.36C115.377 202.64 115.51 202.973 115.51 203.36C115.51 203.733 115.377 204.053 115.11 204.32C114.844 204.6 114.524 204.74 114.15 204.74ZM110.69 204.74C110.304 204.74 109.97 204.6 109.69 204.32C109.424 204.053 109.29 203.733 109.29 203.36C109.29 202.973 109.424 202.64 109.69 202.36C109.97 202.08 110.304 201.94 110.69 201.94C111.064 201.94 111.384 202.08 111.65 202.36C111.917 202.64 112.05 202.973 112.05 203.36C112.05 203.733 111.917 204.053 111.65 204.32C111.384 204.6 111.064 204.74 110.69 204.74ZM116.754 200.1L116.954 197.3C117.541 197.3 118.001 197.26 118.334 197.18C118.681 197.1 118.927 196.953 119.074 196.74C119.221 196.513 119.294 196.193 119.294 195.78C119.294 195.407 119.241 194.96 119.134 194.44C119.041 193.92 118.914 193.38 118.754 192.82C118.594 192.26 118.434 191.747 118.274 191.28L121.034 190.52C121.194 190.973 121.354 191.5 121.514 192.1C121.674 192.7 121.807 193.32 121.914 193.96C122.034 194.587 122.094 195.193 122.094 195.78C122.094 196.513 122.001 197.133 121.814 197.64C121.627 198.133 121.367 198.547 121.034 198.88C120.714 199.2 120.327 199.453 119.874 199.64C119.434 199.813 118.947 199.933 118.414 200C117.881 200.067 117.327 200.1 116.754 200.1ZM119.214 204.7C118.827 204.7 118.494 204.567 118.214 204.3C117.947 204.033 117.814 203.707 117.814 203.32C117.814 202.933 117.947 202.593 118.214 202.3C118.494 202.02 118.827 201.88 119.214 201.88C119.601 201.88 119.927 202.02 120.194 202.3C120.474 202.593 120.614 202.933 120.614 203.32C120.614 203.707 120.474 204.033 120.194 204.3C119.927 204.567 119.601 204.7 119.214 204.7ZM132.09 197.3C132.69 197.3 133.15 197.247 133.47 197.14C133.79 197.033 134.01 196.893 134.13 196.72C134.25 196.547 134.31 196.36 134.31 196.16C134.31 195.84 134.217 195.467 134.03 195.04C133.857 194.613 133.637 194.167 133.37 193.7C133.104 193.233 132.824 192.787 132.53 192.36C132.25 191.933 131.997 191.56 131.77 191.24L134.15 189.66C134.724 190.433 135.217 191.2 135.63 191.96C136.044 192.707 136.377 193.4 136.63 194.04C136.897 194.68 137.084 195.227 137.19 195.68C137.297 196.107 137.457 196.44 137.67 196.68C137.897 196.907 138.157 197.067 138.45 197.16C138.744 197.253 139.037 197.3 139.33 197.3C139.837 197.3 140.197 197.433 140.41 197.7C140.637 197.953 140.75 198.273 140.75 198.66C140.75 199.073 140.61 199.42 140.33 199.7C140.064 199.967 139.664 200.1 139.13 200.1C138.544 200.1 138.03 200.02 137.59 199.86C137.15 199.7 136.777 199.447 136.47 199.1C136.164 198.753 135.904 198.313 135.69 197.78L136.91 198.04C136.804 198.413 136.557 198.76 136.17 199.08C135.797 199.387 135.297 199.64 134.67 199.84C134.057 200.027 133.33 200.12 132.49 200.12C132.09 200.12 131.644 200.087 131.15 200.02C130.67 199.953 130.19 199.853 129.71 199.72C129.244 199.587 128.817 199.413 128.43 199.2L129.41 196.66C129.904 196.873 130.377 197.033 130.83 197.14C131.297 197.247 131.717 197.3 132.09 197.3ZM139.156 200.1L139.356 197.3C140.076 197.3 140.79 197.26 141.496 197.18C142.203 197.1 142.89 196.98 143.556 196.82C144.223 196.66 144.856 196.453 145.456 196.2C146.07 195.947 146.643 195.64 147.176 195.28C146.776 195.04 146.343 194.833 145.876 194.66C145.41 194.487 144.91 194.36 144.376 194.28C143.856 194.187 143.303 194.14 142.716 194.14C142.503 194.14 142.276 194.147 142.036 194.16C141.81 194.173 141.576 194.2 141.336 194.24C141.096 194.267 140.856 194.307 140.616 194.36L140.216 191.62C140.603 191.513 141.01 191.44 141.436 191.4C141.876 191.347 142.263 191.32 142.596 191.32C143.316 191.32 143.976 191.4 144.576 191.56C145.19 191.72 145.75 191.92 146.256 192.16C146.776 192.4 147.256 192.64 147.696 192.88C148.15 193.12 148.576 193.32 148.976 193.48C149.39 193.64 149.79 193.72 150.176 193.72H150.916L151.236 196.38C150.663 196.407 150.123 196.52 149.616 196.72C149.123 196.907 148.63 197.147 148.136 197.44C147.656 197.72 147.136 198.013 146.576 198.32C146.03 198.627 145.41 198.913 144.716 199.18C144.023 199.447 143.223 199.667 142.316 199.84C141.41 200.013 140.356 200.1 139.156 200.1ZM145.156 204.7C144.77 204.7 144.436 204.567 144.156 204.3C143.89 204.033 143.756 203.707 143.756 203.32C143.756 202.933 143.89 202.593 144.156 202.3C144.436 202.02 144.77 201.88 145.156 201.88C145.543 201.88 145.87 202.02 146.136 202.3C146.416 202.593 146.556 202.933 146.556 203.32C146.556 203.707 146.416 204.033 146.136 204.3C145.87 204.567 145.543 204.7 145.156 204.7ZM152.874 204.6L152.294 201.8C153.241 201.68 154.068 201.533 154.774 201.36C155.481 201.2 156.074 200.973 156.554 200.68C157.034 200.387 157.394 199.987 157.634 199.48C157.874 198.96 157.994 198.293 157.994 197.48C157.994 196.693 157.874 196.067 157.634 195.6C157.394 195.133 157.074 194.9 156.674 194.9C156.394 194.9 156.161 195 155.974 195.2C155.788 195.387 155.648 195.613 155.554 195.88C155.474 196.133 155.434 196.36 155.434 196.56C155.434 196.68 155.468 196.807 155.534 196.94C155.601 197.073 155.748 197.187 155.974 197.28C156.201 197.373 156.554 197.427 157.034 197.44C157.528 197.453 158.194 197.407 159.034 197.3H162.394C162.901 197.3 163.261 197.433 163.474 197.7C163.701 197.953 163.814 198.273 163.814 198.66C163.814 199.073 163.674 199.42 163.394 199.7C163.114 199.967 162.714 200.1 162.194 200.1H156.694C155.854 200.1 155.134 200 154.534 199.8C153.934 199.6 153.474 199.28 153.154 198.84C152.834 198.387 152.674 197.787 152.674 197.04C152.674 196.44 152.774 195.84 152.974 195.24C153.188 194.64 153.481 194.093 153.854 193.6C154.228 193.093 154.661 192.693 155.154 192.4C155.661 192.093 156.208 191.94 156.794 191.94C157.594 191.94 158.294 192.187 158.894 192.68C159.494 193.173 159.961 193.827 160.294 194.64C160.641 195.453 160.814 196.34 160.814 197.3C160.814 198.807 160.494 200.087 159.854 201.14C159.214 202.193 158.301 203.007 157.114 203.58C155.928 204.167 154.514 204.507 152.874 204.6ZM162.223 200.1L162.423 197.3C163.223 197.3 163.836 197.26 164.263 197.18C164.689 197.1 164.983 196.953 165.143 196.74C165.316 196.513 165.403 196.193 165.403 195.78C165.403 195.407 165.349 194.96 165.243 194.44C165.149 193.92 165.023 193.38 164.863 192.82C164.716 192.26 164.556 191.747 164.383 191.28L167.143 190.52C167.316 190.973 167.483 191.5 167.643 192.1C167.803 192.7 167.936 193.32 168.043 193.96C168.149 194.587 168.203 195.193 168.203 195.78C168.203 196.687 168.056 197.427 167.763 198C167.469 198.56 167.056 198.993 166.523 199.3C166.003 199.607 165.376 199.82 164.643 199.94C163.909 200.047 163.103 200.1 162.223 200.1ZM167.643 188.9C167.256 188.9 166.923 188.767 166.643 188.5C166.376 188.22 166.243 187.893 166.243 187.52C166.243 187.133 166.376 186.8 166.643 186.52C166.923 186.24 167.256 186.1 167.643 186.1C168.016 186.1 168.336 186.24 168.603 186.52C168.869 186.8 169.003 187.133 169.003 187.52C169.003 187.893 168.869 188.22 168.603 188.5C168.336 188.767 168.016 188.9 167.643 188.9ZM164.183 188.88C163.796 188.88 163.463 188.747 163.183 188.48C162.916 188.2 162.783 187.873 162.783 187.5C162.783 187.113 162.916 186.78 163.183 186.5C163.463 186.22 163.796 186.08 164.183 186.08C164.556 186.08 164.876 186.22 165.143 186.5C165.409 186.78 165.543 187.113 165.543 187.5C165.543 187.873 165.409 188.2 165.143 188.48C164.876 188.747 164.556 188.88 164.183 188.88ZM177.29 189.28C177.29 188.84 177.263 188.4 177.21 187.96C177.17 187.52 177.117 187.107 177.05 186.72C176.983 186.32 176.923 185.973 176.87 185.68L179.67 185.28C179.723 185.547 179.777 185.9 179.83 186.34C179.883 186.78 179.93 187.247 179.97 187.74C180.01 188.22 180.03 188.68 180.03 189.12C180.03 189.813 179.97 190.467 179.85 191.08C179.73 191.693 179.55 192.273 179.31 192.82C179.07 193.353 178.77 193.867 178.41 194.36L178.05 194.84C177.703 195.267 177.297 195.687 176.83 196.1C176.377 196.513 175.877 196.913 175.33 197.3H176.63C177.083 197.3 177.43 197.273 177.67 197.22C177.91 197.167 178.07 197.093 178.15 197C178.243 196.893 178.29 196.773 178.29 196.64C178.29 196.4 178.083 196.047 177.67 195.58C177.257 195.1 176.683 194.553 175.95 193.94C175.217 193.313 174.357 192.653 173.37 191.96C172.397 191.253 171.343 190.547 170.21 189.84L171.67 187.7C173.243 188.673 174.57 189.567 175.65 190.38C176.743 191.193 177.637 191.933 178.33 192.6C179.037 193.267 179.583 193.873 179.97 194.42C180.357 194.967 180.623 195.46 180.77 195.9C180.917 196.327 180.99 196.713 180.99 197.06C180.99 197.447 180.93 197.82 180.81 198.18C180.69 198.527 180.497 198.84 180.23 199.12C179.963 199.387 179.617 199.6 179.19 199.76C178.763 199.92 178.237 200 177.61 200H171.73V197.32C173.103 196.333 174.19 195.4 174.99 194.52C175.803 193.64 176.39 192.773 176.75 191.92C177.11 191.067 177.29 190.187 177.29 189.28Z" fill="#D65D7C"/>
</svg>
