<svg width="319" height="257" viewBox="0 0 319 257" fill="none" xmlns="http://www.w3.org/2000/svg">
<path d="M137.47 39.1001C185.57 44.4801 206.68 2.7801 254.35 8.2401C296.89 13.1101 326.23 43.4201 316.3 84.2401C307.48 120.48 265.49 131.85 250.56 165.8C234.73 201.8 222.46 240.59 174.66 253.12C80.81 277.72 35.22 162.24 28.83 95.9101C26.38 70.4501 22.1 9.5801 55.34 1.7001C88.79 -6.2399 108 35.8001 137.47 39.1001Z" fill="#ED6789"/>
<path opacity="0.9" d="M137.47 39.1001C185.57 44.4801 206.68 2.7801 254.35 8.2401C296.89 13.1101 326.23 43.4201 316.3 84.2401C307.48 120.48 265.49 131.85 250.56 165.8C234.73 201.8 222.46 240.59 174.66 253.12C80.81 277.72 35.22 162.24 28.83 95.9101C26.38 70.4501 22.1 9.5801 55.34 1.7001C88.79 -6.2399 108 35.8001 137.47 39.1001Z" fill="white"/>
<path d="M1.11851 114.359L0.121094 114.431L1.44952 132.873L2.44694 132.801L1.11851 114.359Z" fill="#ED6789"/>
<path d="M3.12437 142.322L2.12695 142.394L2.627 149.336L3.62441 149.264L3.12437 142.322Z" fill="#ED6789"/>
<path d="M234.71 227.16H20.5499C18.166 227.117 15.8824 226.193 14.1393 224.566C12.3962 222.939 11.3171 220.725 11.1099 218.35L0.589928 72.2196C0.492082 71.0926 0.631383 69.9576 0.998848 68.8877C1.36631 67.8179 1.9538 66.8368 2.72347 66.0078C3.49313 65.1788 4.42791 64.5202 5.46759 64.0744C6.50727 63.6286 7.6288 63.4056 8.75993 63.4196H222.92C225.302 63.4622 227.585 64.3847 229.327 66.0094C231.07 67.6341 232.15 69.8461 232.36 72.2196L242.88 218.35C242.978 219.477 242.838 220.612 242.471 221.683C242.104 222.753 241.516 223.735 240.747 224.565C239.977 225.394 239.043 226.054 238.003 226.501C236.963 226.948 235.842 227.172 234.71 227.16Z" fill="#ED6789"/>
<path d="M235.53 227.16H21.3702C18.9864 227.117 16.7027 226.193 14.9596 224.566C13.2165 222.939 12.1374 220.725 11.9302 218.35L1.41024 72.2196C1.31239 71.0926 1.45169 69.9576 1.81915 68.8877C2.18662 67.8179 2.7741 66.8368 3.54377 66.0078C4.31344 65.1788 5.24822 64.5202 6.2879 64.0744C7.32758 63.6286 8.44911 63.4056 9.58024 63.4196H223.74C226.123 63.4622 228.405 64.3847 230.148 66.0094C231.891 67.6341 232.971 69.8461 233.18 72.2196L243.7 218.35C243.8 219.477 243.661 220.613 243.295 221.684C242.928 222.756 242.341 223.738 241.571 224.568C240.801 225.398 239.866 226.058 238.825 226.504C237.785 226.95 236.662 227.174 235.53 227.16Z" fill="#ED6789"/>
<path opacity="0.5" d="M235.53 227.16H21.3702C18.9864 227.117 16.7027 226.193 14.9596 224.566C13.2165 222.939 12.1374 220.725 11.9302 218.35L1.41024 72.2196C1.31239 71.0926 1.45169 69.9576 1.81915 68.8877C2.18662 67.8179 2.7741 66.8368 3.54377 66.0078C4.31344 65.1788 5.24822 64.5202 6.2879 64.0744C7.32758 63.6286 8.44911 63.4056 9.58024 63.4196H223.74C226.123 63.4622 228.405 64.3847 230.148 66.0094C231.891 67.6341 232.971 69.8461 233.18 72.2196L243.7 218.35C243.8 219.477 243.661 220.613 243.295 221.684C242.928 222.756 242.341 223.738 241.571 224.568C240.801 225.398 239.866 226.058 238.825 226.504C237.785 226.95 236.662 227.174 235.53 227.16Z" fill="white"/>
<path d="M224.06 67.8193H9.90029H9.18029C3.71029 68.2693 4.83029 76.5993 10.3503 76.5993H224.87C230.4 76.5993 230.32 68.2693 224.78 67.8193H224.06Z" fill="#ED6789"/>
<path d="M15.4797 72.2199C15.5007 72.4777 15.4674 72.7371 15.382 72.9812C15.2966 73.2254 15.1609 73.4489 14.9838 73.6373C14.8066 73.8258 14.5919 73.975 14.3535 74.0754C14.1151 74.1757 13.8583 74.225 13.5997 74.2199C13.0562 74.2123 12.5348 74.0037 12.1359 73.6344C11.7371 73.2651 11.4891 72.7612 11.4397 72.2199C11.4188 71.963 11.4518 71.7045 11.5366 71.461C11.6214 71.2176 11.7562 70.9945 11.9323 70.8062C12.1083 70.6179 12.3218 70.4685 12.559 70.3675C12.7962 70.2666 13.0519 70.2163 13.3097 70.2199C13.8549 70.2251 14.3788 70.4326 14.7798 70.8021C15.1807 71.1716 15.4302 71.6769 15.4797 72.2199Z" fill="#FAFAFA"/>
<path d="M22.3498 72.2199C22.3708 72.4777 22.3376 72.7371 22.2521 72.9812C22.1667 73.2254 22.0311 73.4489 21.8539 73.6373C21.6767 73.8258 21.462 73.975 21.2236 74.0754C20.9852 74.1757 20.7284 74.225 20.4698 74.2199C19.9263 74.2123 19.4049 74.0037 19.006 73.6344C18.6072 73.2651 18.3592 72.7612 18.3098 72.2199C18.2889 71.963 18.3219 71.7045 18.4067 71.461C18.4915 71.2176 18.6263 70.9945 18.8024 70.8062C18.9785 70.6179 19.1919 70.4685 19.4291 70.3675C19.6664 70.2666 19.922 70.2163 20.1798 70.2199C20.7251 70.2251 21.249 70.4326 21.6499 70.8021C22.0508 71.1716 22.3003 71.6769 22.3498 72.2199Z" fill="#FAFAFA"/>
<path d="M29.2099 72.2191C29.2308 72.4761 29.1978 72.7346 29.113 72.978C29.0281 73.2215 28.8934 73.4445 28.7173 73.6328C28.5412 73.8211 28.3277 73.9705 28.0905 74.0715C27.8533 74.1725 27.5976 74.2228 27.3399 74.2191C26.7957 74.2137 26.273 74.0059 25.8737 73.6362C25.4744 73.2664 25.227 72.7613 25.1799 72.2191C25.1573 71.9618 25.1893 71.7027 25.2735 71.4585C25.3577 71.2144 25.4924 70.9907 25.6688 70.8021C25.8452 70.6134 26.0593 70.464 26.2973 70.3636C26.5352 70.2632 26.7916 70.2139 27.0499 70.2191C27.5934 70.2268 28.1148 70.4353 28.5137 70.8046C28.9125 71.1739 29.1605 71.6778 29.2099 72.2191Z" fill="#FAFAFA"/>
<path d="M229.85 212.58H24.9996C24.1343 212.566 23.3051 212.23 22.6731 211.639C22.0412 211.048 21.6514 210.243 21.5796 209.38L12.9296 89.21C12.8911 88.7977 12.9408 88.3818 13.0753 87.9901C13.2098 87.5984 13.4261 87.2398 13.7099 86.9381C13.9936 86.6364 14.3383 86.3985 14.721 86.2402C15.1037 86.0819 15.5157 86.0069 15.9296 86.02H220.83C221.694 86.0319 222.523 86.3652 223.155 86.9549C223.788 87.5446 224.178 88.3485 224.25 89.21L232.91 209.38C232.947 209.798 232.895 210.219 232.756 210.614C232.618 211.01 232.396 211.372 232.106 211.675C231.816 211.978 231.465 212.216 231.076 212.372C230.687 212.528 230.269 212.599 229.85 212.58Z" fill="white"/>
<path d="M143.53 166.799L140.19 120.479L130.09 114.399H102.28L106.06 166.799H143.53Z" fill="white"/>
<path d="M143.53 167.279H106.06C105.936 167.282 105.816 167.237 105.724 167.153C105.633 167.069 105.578 166.953 105.57 166.829L101.8 114.429C101.795 114.363 101.804 114.297 101.827 114.235C101.849 114.173 101.884 114.117 101.93 114.069C101.974 114.02 102.028 113.98 102.088 113.953C102.149 113.925 102.214 113.91 102.28 113.909H130.09C130.178 113.912 130.264 113.936 130.34 113.979L140.44 120.059C140.508 120.098 140.565 120.153 140.607 120.219C140.649 120.286 140.674 120.361 140.68 120.439L144 166.759C144.007 166.827 143.999 166.895 143.976 166.959C143.954 167.023 143.918 167.081 143.87 167.129C143.827 167.176 143.774 167.213 143.716 167.239C143.657 167.265 143.594 167.279 143.53 167.279ZM106.53 166.279H143L139.72 120.729L130 114.879H102.8L106.53 166.279Z" fill="#ED6789"/>
<path d="M140.19 120.479L130.09 114.399L133.8 122.459L140.19 120.479Z" fill="#EBEBEB"/>
<path d="M133.8 122.939C133.707 122.939 133.617 122.912 133.539 122.863C133.462 122.813 133.399 122.743 133.36 122.659L129.65 114.599C129.606 114.505 129.594 114.399 129.614 114.297C129.633 114.194 129.684 114.101 129.76 114.029C129.839 113.961 129.938 113.92 130.042 113.911C130.146 113.902 130.25 113.926 130.34 113.979L140.44 120.059C140.521 120.108 140.587 120.179 140.63 120.264C140.672 120.349 140.689 120.445 140.68 120.539C140.667 120.631 140.628 120.718 140.568 120.789C140.508 120.859 140.429 120.912 140.34 120.939L133.94 122.939H133.8ZM131.19 115.619L134.06 121.869L139.06 120.339L131.19 115.619Z" fill="#ED6789"/>
<path d="M118 137.999C118.015 138.271 117.974 138.543 117.88 138.798C117.787 139.054 117.642 139.287 117.454 139.485C117.267 139.683 117.042 139.84 116.792 139.947C116.541 140.054 116.272 140.11 116 140.109C115.429 140.099 114.882 139.878 114.465 139.488C114.048 139.098 113.789 138.568 113.74 137.999C113.714 137.725 113.747 137.448 113.837 137.187C113.927 136.926 114.071 136.687 114.26 136.487C114.45 136.286 114.679 136.128 114.935 136.023C115.19 135.919 115.464 135.869 115.74 135.879C116.312 135.892 116.859 136.115 117.276 136.507C117.693 136.898 117.951 137.429 118 137.999Z" fill="#ED6789"/>
<path d="M131.7 138C131.725 138.274 131.69 138.55 131.6 138.809C131.51 139.069 131.365 139.306 131.176 139.506C130.987 139.705 130.757 139.862 130.503 139.966C130.249 140.071 129.975 140.119 129.7 140.11C129.128 140.1 128.58 139.879 128.161 139.49C127.742 139.1 127.482 138.57 127.43 138C127.414 137.727 127.454 137.454 127.547 137.198C127.64 136.941 127.785 136.706 127.972 136.507C128.159 136.309 128.385 136.151 128.636 136.043C128.887 135.935 129.157 135.879 129.43 135.88C130.005 135.888 130.555 136.109 130.975 136.501C131.395 136.893 131.653 137.428 131.7 138Z" fill="#ED6789"/>
<path d="M135.58 151.74C135.458 151.738 135.342 151.69 135.253 151.607C135.164 151.524 135.11 151.411 135.1 151.29C134.85 147.88 129.51 145.11 123.2 145.11C119.01 145.11 115.25 146.36 113.39 148.36C113.008 148.728 112.709 149.174 112.512 149.667C112.315 150.16 112.226 150.689 112.25 151.22C112.255 151.285 112.246 151.351 112.225 151.414C112.204 151.476 112.171 151.534 112.128 151.583C112.041 151.684 111.918 151.745 111.785 151.755C111.652 151.764 111.521 151.72 111.421 151.633C111.321 151.546 111.259 151.422 111.25 151.29C111.22 150.627 111.329 149.965 111.57 149.347C111.812 148.728 112.179 148.167 112.65 147.7C114.65 145.51 118.72 144.14 123.17 144.14C130.1 144.14 135.75 147.25 136.03 151.22C136.034 151.283 136.026 151.346 136.005 151.406C135.985 151.466 135.953 151.521 135.911 151.568C135.869 151.615 135.818 151.654 135.761 151.682C135.705 151.71 135.643 151.726 135.58 151.73V151.74Z" fill="#ED6789"/>
<path d="M110.17 133.72C110.048 133.717 109.931 133.671 109.84 133.59C109.749 133.498 109.698 133.374 109.698 133.245C109.698 133.116 109.749 132.992 109.84 132.9L111.97 130.61C112.062 130.522 112.183 130.473 112.31 130.473C112.437 130.473 112.559 130.522 112.65 130.61C112.695 130.654 112.731 130.707 112.755 130.766C112.779 130.824 112.791 130.887 112.791 130.95C112.791 131.013 112.779 131.076 112.755 131.134C112.731 131.192 112.695 131.245 112.65 131.29L110.52 133.58C110.474 133.626 110.42 133.662 110.36 133.686C110.299 133.71 110.235 133.721 110.17 133.72Z" fill="#ED6789"/>
<path d="M134.58 133.72C134.458 133.714 134.342 133.668 134.25 133.59L131.8 131.3C131.753 131.255 131.717 131.201 131.691 131.142C131.666 131.083 131.653 131.019 131.653 130.955C131.653 130.89 131.666 130.827 131.691 130.767C131.717 130.708 131.753 130.655 131.8 130.61C131.891 130.522 132.013 130.473 132.14 130.473C132.266 130.473 132.388 130.522 132.48 130.61L134.93 132.9C134.974 132.944 135.01 132.997 135.034 133.056C135.058 133.114 135.071 133.177 135.071 133.24C135.071 133.303 135.058 133.366 135.034 133.424C135.01 133.482 134.974 133.535 134.93 133.58C134.835 133.669 134.71 133.719 134.58 133.72Z" fill="#ED6789"/>
<path d="M48.52 197.44C48.52 197.133 48.5467 196.773 48.6 196.36C48.6533 195.947 48.7533 195.48 48.9 194.96C49.0467 194.427 49.2667 193.833 49.56 193.18L52.02 194.04C51.8733 194.453 51.7467 194.833 51.64 195.18C51.5333 195.513 51.4533 195.827 51.4 196.12C51.3467 196.4 51.32 196.68 51.32 196.96C51.32 197.64 51.4667 198.2 51.76 198.64C52.0667 199.08 52.4933 199.407 53.04 199.62C53.5867 199.833 54.22 199.94 54.94 199.94C55.9 199.94 56.66 199.78 57.22 199.46C57.78 199.14 58.1867 198.693 58.44 198.12C58.6933 197.56 58.8467 196.907 58.9 196.16C58.9667 195.4 58.9867 194.593 58.96 193.74L58.58 183.36H61.4L61.74 193.56C61.7667 194.427 61.7333 195.293 61.64 196.16C61.56 197.027 61.38 197.847 61.1 198.62C60.8333 199.393 60.44 200.08 59.92 200.68C59.4 201.28 58.7267 201.753 57.9 202.1C57.0867 202.447 56.08 202.62 54.88 202.62C54.0133 202.62 53.1933 202.52 52.42 202.32C51.66 202.12 50.9867 201.807 50.4 201.38C49.8133 200.967 49.3533 200.433 49.02 199.78C48.6867 199.127 48.52 198.347 48.52 197.44ZM69.1642 198.1C67.9242 198.1 66.9642 197.973 66.2842 197.72C65.6176 197.467 65.1509 197.073 64.8842 196.54C64.6176 195.993 64.4642 195.307 64.4242 194.48L64.0042 183.36H66.8042L67.2242 193.14C67.2509 193.753 67.3176 194.213 67.4242 194.52C67.5309 194.827 67.7309 195.033 68.0242 195.14C68.3309 195.247 68.7776 195.3 69.3642 195.3C69.8709 195.3 70.2309 195.433 70.4442 195.7C70.6709 195.953 70.7842 196.273 70.7842 196.66C70.7842 197.073 70.6442 197.42 70.3642 197.7C70.0842 197.967 69.6842 198.1 69.1642 198.1ZM69.1114 198.1L69.3114 195.3C70.2447 195.3 71.0847 195.24 71.8314 195.12C72.5781 194.987 73.2314 194.813 73.7914 194.6C74.3647 194.387 74.8381 194.14 75.2114 193.86C75.5981 193.58 75.8847 193.287 76.0714 192.98C76.2714 192.66 76.3714 192.347 76.3714 192.04C76.3714 191.867 76.3247 191.707 76.2314 191.56C76.1514 191.4 76.0114 191.273 75.8114 191.18C75.6114 191.073 75.3381 191.02 74.9914 191.02C74.8181 191.02 74.6114 191.04 74.3714 191.08C74.1314 191.12 73.8914 191.18 73.6514 191.26C73.4114 191.327 73.1847 191.42 72.9714 191.54C73.2514 191.753 73.5581 192.027 73.8914 192.36C74.2247 192.68 74.5581 193.02 74.8914 193.38C75.2247 193.727 75.5114 194.067 75.7514 194.4C76.0314 194.52 76.3381 194.64 76.6714 194.76C77.0181 194.867 77.3914 194.96 77.7914 195.04C78.1914 195.12 78.6114 195.187 79.0514 195.24C79.4914 195.28 79.9447 195.3 80.4114 195.3C80.9181 195.3 81.2781 195.433 81.4914 195.7C81.7181 195.953 81.8314 196.273 81.8314 196.66C81.8314 197.073 81.6914 197.42 81.4114 197.7C81.1314 197.967 80.7314 198.1 80.2114 198.1C79.1447 198.1 78.1981 198.02 77.3714 197.86C76.5447 197.687 75.8047 197.44 75.1514 197.12C74.5114 196.787 73.9114 196.387 73.3514 195.92C73.1914 195.64 72.9647 195.34 72.6714 195.02C72.3914 194.687 72.0914 194.367 71.7714 194.06C71.4647 193.753 71.1847 193.5 70.9314 193.3C70.8647 193.247 70.7847 193.107 70.6914 192.88C70.6114 192.64 70.5381 192.393 70.4714 192.14C70.4047 191.873 70.3714 191.687 70.3714 191.58C70.3714 191.273 70.5114 190.947 70.7914 190.6C71.0847 190.253 71.4714 189.933 71.9514 189.64C72.4447 189.333 72.9847 189.087 73.5714 188.9C74.1714 188.7 74.7781 188.6 75.3914 188.6C76.2181 188.6 76.9047 188.727 77.4514 188.98C78.0114 189.22 78.4314 189.56 78.7114 190C78.9914 190.427 79.1314 190.927 79.1314 191.5C79.1314 192.14 78.9914 192.78 78.7114 193.42C78.4314 194.047 78.0181 194.64 77.4714 195.2C76.9381 195.76 76.2647 196.26 75.4514 196.7C74.6514 197.127 73.7181 197.467 72.6514 197.72C71.5981 197.973 70.4181 198.1 69.1114 198.1ZM80.2266 198.1L80.4266 195.32C81.5332 195.32 82.4199 195.313 83.0866 195.3C83.7666 195.287 84.2932 195.26 84.6666 195.22C85.0532 195.167 85.3399 195.107 85.5266 195.04C85.7132 194.96 85.8732 194.873 86.0066 194.78C86.1666 194.66 86.2999 194.5 86.4066 194.3C86.5266 194.087 86.6199 193.807 86.6866 193.46C86.7532 193.113 86.7866 192.68 86.7866 192.16C86.7866 191.507 86.7266 190.96 86.6066 190.52C86.4999 190.067 86.3399 189.727 86.1266 189.5C85.9266 189.273 85.6799 189.16 85.3866 189.16C85.1732 189.16 84.9732 189.233 84.7866 189.38C84.5999 189.513 84.4466 189.7 84.3266 189.94C84.2066 190.18 84.1466 190.453 84.1466 190.76C84.1466 190.933 84.1932 191.087 84.2866 191.22C84.3799 191.353 84.5266 191.453 84.7266 191.52C84.9266 191.587 85.1799 191.62 85.4866 191.62C85.7799 191.62 86.0866 191.587 86.4066 191.52C86.7399 191.44 87.0466 191.333 87.3266 191.2L87.4066 193.58C87.1932 193.727 86.9466 193.86 86.6666 193.98C86.3866 194.1 86.0866 194.193 85.7666 194.26C85.4599 194.313 85.1466 194.34 84.8266 194.34C84.1199 194.34 83.5066 194.247 82.9866 194.06C82.4799 193.86 82.0866 193.54 81.8066 193.1C81.5266 192.66 81.3866 192.06 81.3866 191.3C81.3866 190.713 81.4866 190.133 81.6866 189.56C81.8866 188.973 82.1732 188.447 82.5466 187.98C82.9199 187.5 83.3599 187.12 83.8666 186.84C84.3732 186.547 84.9332 186.4 85.5466 186.4C86.4532 186.4 87.1999 186.667 87.7866 187.2C88.3866 187.72 88.8266 188.427 89.1066 189.32C89.3999 190.2 89.5466 191.18 89.5466 192.26C89.5466 193.207 89.4066 194.033 89.1266 194.74C88.8466 195.433 88.5132 195.98 88.1266 196.38C87.8066 196.713 87.4399 196.993 87.0266 197.22C86.6132 197.447 86.1066 197.627 85.5066 197.76C84.9199 197.88 84.1932 197.967 83.3266 198.02C82.4732 198.073 81.4399 198.1 80.2266 198.1ZM85.5066 184.54C85.0932 184.54 84.7399 184.4 84.4466 184.12C84.1666 183.84 84.0266 183.493 84.0266 183.08C84.0266 182.667 84.1666 182.313 84.4466 182.02C84.7399 181.727 85.0932 181.58 85.5066 181.58C85.9066 181.58 86.2466 181.727 86.5266 182.02C86.8199 182.313 86.9666 182.667 86.9666 183.08C86.9666 183.493 86.8199 183.84 86.5266 184.12C86.2466 184.4 85.9066 184.54 85.5066 184.54ZM96.0931 202.6L95.5131 199.8C96.4598 199.68 97.2865 199.533 97.9931 199.36C98.6998 199.2 99.2931 198.973 99.7731 198.68C100.253 198.387 100.613 197.987 100.853 197.48C101.093 196.96 101.213 196.293 101.213 195.48C101.213 194.693 101.093 194.067 100.853 193.6C100.613 193.133 100.293 192.9 99.8931 192.9C99.6131 192.9 99.3798 193 99.1931 193.2C99.0065 193.387 98.8665 193.613 98.7731 193.88C98.6931 194.133 98.6531 194.36 98.6531 194.56C98.6531 194.68 98.6865 194.807 98.7531 194.94C98.8198 195.073 98.9665 195.187 99.1931 195.28C99.4198 195.373 99.7731 195.427 100.253 195.44C100.746 195.453 101.413 195.407 102.253 195.3H105.613C106.12 195.3 106.48 195.433 106.693 195.7C106.92 195.953 107.033 196.273 107.033 196.66C107.033 197.073 106.893 197.42 106.613 197.7C106.333 197.967 105.933 198.1 105.413 198.1H99.9131C99.0731 198.1 98.3531 198 97.7531 197.8C97.1531 197.6 96.6931 197.28 96.3731 196.84C96.0531 196.387 95.8931 195.787 95.8931 195.04C95.8931 194.44 95.9931 193.84 96.1931 193.24C96.4065 192.64 96.6998 192.093 97.0731 191.6C97.4465 191.093 97.8798 190.693 98.3731 190.4C98.8798 190.093 99.4265 189.94 100.013 189.94C100.813 189.94 101.513 190.187 102.113 190.68C102.713 191.173 103.18 191.827 103.513 192.64C103.86 193.453 104.033 194.34 104.033 195.3C104.033 196.807 103.713 198.087 103.073 199.14C102.433 200.193 101.52 201.007 100.333 201.58C99.1465 202.167 97.7331 202.507 96.0931 202.6ZM125.501 198.1C124.821 198.1 124.168 198.04 123.541 197.92C122.915 197.787 122.348 197.613 121.841 197.4C121.348 197.187 120.941 196.947 120.621 196.68L122.421 194.74C122.901 194.94 123.395 195.087 123.901 195.18C124.408 195.26 125.008 195.3 125.701 195.3C126.208 195.3 126.568 195.433 126.781 195.7C127.008 195.953 127.121 196.273 127.121 196.66C127.121 197.073 126.981 197.42 126.701 197.7C126.421 197.967 126.021 198.1 125.501 198.1ZM115.801 198.36C114.561 198.36 113.528 198.307 112.701 198.2C111.888 198.093 111.228 197.94 110.721 197.74C110.215 197.54 109.815 197.3 109.521 197.02C109.228 196.74 108.988 196.433 108.801 196.1L109.361 195.94C109.028 196.58 108.648 197.053 108.221 197.36C107.795 197.667 107.348 197.867 106.881 197.96C106.415 198.053 105.935 198.1 105.441 198.1L105.641 195.3C106.055 195.3 106.381 195.233 106.621 195.1C106.861 194.967 107.055 194.747 107.201 194.44C107.361 194.133 107.508 193.727 107.641 193.22C107.775 192.713 107.935 192.093 108.121 191.36L110.661 191.98C110.568 192.34 110.488 192.653 110.421 192.92C110.368 193.187 110.321 193.42 110.281 193.62C110.255 193.807 110.241 193.96 110.241 194.08C110.241 194.333 110.301 194.56 110.421 194.76C110.541 194.947 110.775 195.1 111.121 195.22C111.468 195.327 111.975 195.413 112.641 195.48C113.321 195.533 114.208 195.56 115.301 195.56C116.461 195.56 117.428 195.52 118.201 195.44C118.975 195.347 119.588 195.22 120.041 195.06C120.508 194.887 120.841 194.68 121.041 194.44C121.241 194.187 121.341 193.9 121.341 193.58C121.341 193.327 121.281 193.093 121.161 192.88C121.055 192.653 120.875 192.467 120.621 192.32C120.368 192.173 120.041 192.1 119.641 192.1C119.161 192.1 118.675 192.22 118.181 192.46C117.701 192.687 117.228 192.993 116.761 193.38C116.295 193.753 115.848 194.173 115.421 194.64C115.008 195.107 114.635 195.573 114.301 196.04L111.301 195.7C111.821 194.86 112.408 194.053 113.061 193.28C113.715 192.507 114.415 191.827 115.161 191.24C115.908 190.64 116.681 190.167 117.481 189.82C118.281 189.473 119.095 189.3 119.921 189.3C120.815 189.3 121.575 189.473 122.201 189.82C122.828 190.167 123.308 190.647 123.641 191.26C123.975 191.873 124.141 192.58 124.141 193.38C124.141 194.353 123.861 195.213 123.301 195.96C122.755 196.707 121.868 197.293 120.641 197.72C119.428 198.147 117.815 198.36 115.801 198.36ZM119.341 187.44C118.928 187.44 118.575 187.3 118.281 187.02C118.001 186.74 117.861 186.393 117.861 185.98C117.861 185.567 118.001 185.213 118.281 184.92C118.575 184.627 118.928 184.48 119.341 184.48C119.741 184.48 120.081 184.627 120.361 184.92C120.655 185.213 120.801 185.567 120.801 185.98C120.801 186.393 120.655 186.74 120.361 187.02C120.081 187.3 119.741 187.44 119.341 187.44ZM125.52 198.1L125.72 195.3C126.346 195.3 126.826 195.293 127.16 195.28C127.506 195.267 127.766 195.253 127.94 195.24C128.113 195.213 128.26 195.193 128.38 195.18C128.246 195.047 128.073 194.853 127.86 194.6C127.646 194.347 127.453 194.02 127.28 193.62C127.12 193.22 127.04 192.74 127.04 192.18C127.04 191.367 127.246 190.653 127.66 190.04C128.086 189.427 128.66 188.947 129.38 188.6C130.1 188.253 130.906 188.08 131.8 188.08C132.226 188.08 132.62 188.107 132.98 188.16C133.353 188.213 133.726 188.293 134.1 188.4L133.66 191.06C133.393 190.993 133.113 190.94 132.82 190.9C132.526 190.86 132.266 190.84 132.04 190.84C131.6 190.84 131.213 190.913 130.88 191.06C130.56 191.193 130.306 191.387 130.12 191.64C129.946 191.88 129.86 192.173 129.86 192.52C129.86 192.747 129.9 192.96 129.98 193.16C130.073 193.36 130.186 193.54 130.32 193.7C130.453 193.86 130.6 194 130.76 194.12C130.92 194.24 131.073 194.34 131.22 194.42C131.38 194.487 131.513 194.533 131.62 194.56C131.953 194.467 132.24 194.387 132.48 194.32C132.733 194.24 132.973 194.167 133.2 194.1C133.44 194.02 133.7 193.92 133.98 193.8C134.26 193.68 134.606 193.533 135.02 193.36L135.92 196C134.8 196.547 133.706 196.973 132.64 197.28C131.573 197.587 130.466 197.8 129.32 197.92C128.173 198.04 126.906 198.1 125.52 198.1ZM145.641 195.3C146.241 195.3 146.701 195.247 147.021 195.14C147.341 195.033 147.561 194.893 147.681 194.72C147.801 194.547 147.861 194.36 147.861 194.16C147.861 193.84 147.768 193.467 147.581 193.04C147.408 192.613 147.188 192.167 146.921 191.7C146.655 191.233 146.375 190.787 146.081 190.36C145.801 189.933 145.548 189.56 145.321 189.24L147.701 187.66C148.275 188.433 148.768 189.2 149.181 189.96C149.595 190.707 149.928 191.4 150.181 192.04C150.448 192.68 150.635 193.227 150.741 193.68C150.848 194.107 151.008 194.44 151.221 194.68C151.448 194.907 151.708 195.067 152.001 195.16C152.295 195.253 152.588 195.3 152.881 195.3C153.388 195.3 153.748 195.433 153.961 195.7C154.188 195.953 154.301 196.273 154.301 196.66C154.301 197.073 154.161 197.42 153.881 197.7C153.615 197.967 153.215 198.1 152.681 198.1C152.095 198.1 151.581 198.02 151.141 197.86C150.701 197.7 150.328 197.447 150.021 197.1C149.715 196.753 149.455 196.313 149.241 195.78L150.461 196.04C150.355 196.413 150.108 196.76 149.721 197.08C149.348 197.387 148.848 197.64 148.221 197.84C147.608 198.027 146.881 198.12 146.041 198.12C145.641 198.12 145.195 198.087 144.701 198.02C144.221 197.953 143.741 197.853 143.261 197.72C142.795 197.587 142.368 197.413 141.981 197.2L142.961 194.66C143.455 194.873 143.928 195.033 144.381 195.14C144.848 195.247 145.268 195.3 145.641 195.3ZM152.707 198.1L152.907 195.3C153.627 195.3 154.34 195.26 155.047 195.18C155.754 195.1 156.44 194.98 157.107 194.82C157.774 194.66 158.407 194.453 159.007 194.2C159.62 193.947 160.194 193.64 160.727 193.28C160.327 193.04 159.894 192.833 159.427 192.66C158.96 192.487 158.46 192.36 157.927 192.28C157.407 192.187 156.854 192.14 156.267 192.14C156.054 192.14 155.827 192.147 155.587 192.16C155.36 192.173 155.127 192.2 154.887 192.24C154.647 192.267 154.407 192.307 154.167 192.36L153.767 189.62C154.154 189.513 154.56 189.44 154.987 189.4C155.427 189.347 155.814 189.32 156.147 189.32C156.867 189.32 157.527 189.4 158.127 189.56C158.74 189.72 159.3 189.92 159.807 190.16C160.327 190.4 160.807 190.64 161.247 190.88C161.7 191.12 162.127 191.32 162.527 191.48C162.94 191.64 163.34 191.72 163.727 191.72H164.467L164.787 194.38C164.214 194.407 163.674 194.52 163.167 194.72C162.674 194.907 162.18 195.147 161.687 195.44C161.207 195.72 160.687 196.013 160.127 196.32C159.58 196.627 158.96 196.913 158.267 197.18C157.574 197.447 156.774 197.667 155.867 197.84C154.96 198.013 153.907 198.1 152.707 198.1ZM158.707 202.7C158.32 202.7 157.987 202.567 157.707 202.3C157.44 202.033 157.307 201.707 157.307 201.32C157.307 200.933 157.44 200.593 157.707 200.3C157.987 200.02 158.32 199.88 158.707 199.88C159.094 199.88 159.42 200.02 159.687 200.3C159.967 200.593 160.107 200.933 160.107 201.32C160.107 201.707 159.967 202.033 159.687 202.3C159.42 202.567 159.094 202.7 158.707 202.7ZM166.425 202.6L165.845 199.8C166.792 199.68 167.618 199.533 168.325 199.36C169.032 199.2 169.625 198.973 170.105 198.68C170.585 198.387 170.945 197.987 171.185 197.48C171.425 196.96 171.545 196.293 171.545 195.48C171.545 194.693 171.425 194.067 171.185 193.6C170.945 193.133 170.625 192.9 170.225 192.9C169.945 192.9 169.712 193 169.525 193.2C169.338 193.387 169.198 193.613 169.105 193.88C169.025 194.133 168.985 194.36 168.985 194.56C168.985 194.68 169.018 194.807 169.085 194.94C169.152 195.073 169.298 195.187 169.525 195.28C169.752 195.373 170.105 195.427 170.585 195.44C171.078 195.453 171.745 195.407 172.585 195.3H175.945C176.452 195.3 176.812 195.433 177.025 195.7C177.252 195.953 177.365 196.273 177.365 196.66C177.365 197.073 177.225 197.42 176.945 197.7C176.665 197.967 176.265 198.1 175.745 198.1H170.245C169.405 198.1 168.685 198 168.085 197.8C167.485 197.6 167.025 197.28 166.705 196.84C166.385 196.387 166.225 195.787 166.225 195.04C166.225 194.44 166.325 193.84 166.525 193.24C166.738 192.64 167.032 192.093 167.405 191.6C167.778 191.093 168.212 190.693 168.705 190.4C169.212 190.093 169.758 189.94 170.345 189.94C171.145 189.94 171.845 190.187 172.445 190.68C173.045 191.173 173.512 191.827 173.845 192.64C174.192 193.453 174.365 194.34 174.365 195.3C174.365 196.807 174.045 198.087 173.405 199.14C172.765 200.193 171.852 201.007 170.665 201.58C169.478 202.167 168.065 202.507 166.425 202.6ZM175.773 198.1L175.973 195.3C176.773 195.3 177.387 195.26 177.813 195.18C178.24 195.1 178.533 194.953 178.693 194.74C178.867 194.513 178.953 194.193 178.953 193.78C178.953 193.407 178.9 192.96 178.793 192.44C178.7 191.92 178.573 191.38 178.413 190.82C178.267 190.26 178.107 189.747 177.933 189.28L180.693 188.52C180.867 188.973 181.033 189.5 181.193 190.1C181.353 190.7 181.487 191.32 181.593 191.96C181.7 192.587 181.753 193.193 181.753 193.78C181.753 194.687 181.607 195.427 181.313 196C181.02 196.56 180.607 196.993 180.073 197.3C179.553 197.607 178.927 197.82 178.193 197.94C177.46 198.047 176.653 198.1 175.773 198.1ZM180.713 202.74C180.327 202.74 179.993 202.6 179.713 202.32C179.447 202.053 179.313 201.733 179.313 201.36C179.313 200.973 179.447 200.64 179.713 200.36C179.993 200.08 180.327 199.94 180.713 199.94C181.087 199.94 181.407 200.08 181.673 200.36C181.94 200.64 182.073 200.973 182.073 201.36C182.073 201.733 181.94 202.053 181.673 202.32C181.407 202.6 181.087 202.74 180.713 202.74ZM177.253 202.74C176.867 202.74 176.533 202.6 176.253 202.32C175.987 202.053 175.853 201.733 175.853 201.36C175.853 200.973 175.987 200.64 176.253 200.36C176.533 200.08 176.867 199.94 177.253 199.94C177.627 199.94 177.947 200.08 178.213 200.36C178.48 200.64 178.613 200.973 178.613 201.36C178.613 201.733 178.48 202.053 178.213 202.32C177.947 202.6 177.627 202.74 177.253 202.74ZM195.47 187.28C195.47 186.84 195.443 186.4 195.39 185.96C195.35 185.52 195.297 185.107 195.23 184.72C195.163 184.32 195.103 183.973 195.05 183.68L197.85 183.28C197.903 183.547 197.957 183.9 198.01 184.34C198.063 184.78 198.11 185.247 198.15 185.74C198.19 186.22 198.21 186.68 198.21 187.12C198.21 187.813 198.15 188.467 198.03 189.08C197.91 189.693 197.73 190.273 197.49 190.82C197.25 191.353 196.95 191.867 196.59 192.36L196.23 192.84C195.883 193.267 195.477 193.687 195.01 194.1C194.557 194.513 194.057 194.913 193.51 195.3H194.81C195.263 195.3 195.61 195.273 195.85 195.22C196.09 195.167 196.25 195.093 196.33 195C196.423 194.893 196.47 194.773 196.47 194.64C196.47 194.4 196.263 194.047 195.85 193.58C195.437 193.1 194.863 192.553 194.13 191.94C193.397 191.313 192.537 190.653 191.55 189.96C190.577 189.253 189.523 188.547 188.39 187.84L189.85 185.7C191.423 186.673 192.75 187.567 193.83 188.38C194.923 189.193 195.817 189.933 196.51 190.6C197.217 191.267 197.763 191.873 198.15 192.42C198.537 192.967 198.803 193.46 198.95 193.9C199.097 194.327 199.17 194.713 199.17 195.06C199.17 195.447 199.11 195.82 198.99 196.18C198.87 196.527 198.677 196.84 198.41 197.12C198.143 197.387 197.797 197.6 197.37 197.76C196.943 197.92 196.417 198 195.79 198H189.91V195.32C191.283 194.333 192.37 193.4 193.17 192.52C193.983 191.64 194.57 190.773 194.93 189.92C195.29 189.067 195.47 188.187 195.47 187.28Z" fill="#D65D7C"/>
</svg>
